<?xml version="1.0" encoding="utf-8"?>
<!-- Generator: Adobe Illustrator 17.1.0, SVG Export Plug-In . SVG Version: 6.00 Build 0)  -->
<!DOCTYPE svg PUBLIC "-//W3C//DTD SVG 1.1//EN" "http://www.w3.org/Graphics/SVG/1.1/DTD/svg11.dtd">
<svg version="1.1" id="Calque_1" xmlns="http://www.w3.org/2000/svg" xmlns:xlink="http://www.w3.org/1999/xlink" x="0px" y="0px"
	 viewBox="0 0 500 500" enable-background="new 0 0 500 500" xml:space="preserve">
<rect x="-4" fill="#D23332" width="503" height="501"/>
<g>
	<path fill="#FFFFFF" d="M173.1,286.8c-14.3,0-25.9,11.6-25.9,25.9s11.6,25.9,25.9,25.9c14.3,0,25.9-11.6,25.9-25.9
		S187.4,286.8,173.1,286.8z M173.1,326.7c-7.7,0-14-6.3-14-14c0-7.7,6.3-14,14-14c7.7,0,14,6.3,14,14
		C187.1,320.4,180.8,326.7,173.1,326.7z"/>
	<circle fill="#FFFFFF" cx="173.1" cy="312.7" r="2.5"/>
	<path fill="#FFFFFF" d="M323.1,286.8c-14.3,0-25.9,11.6-25.9,25.9s11.6,25.9,25.9,25.9c14.3,0,25.9-11.6,25.9-25.9
		S337.4,286.8,323.1,286.8z M323.1,326.7c-7.7,0-14-6.3-14-14c0-7.7,6.3-14,14-14c7.7,0,14,6.3,14,14
		C337.1,320.4,330.8,326.7,323.1,326.7z"/>
	<circle fill="#FFFFFF" cx="323.1" cy="312.7" r="2.5"/>
	<path fill="#FFFFFF" d="M142.1,312.7c0-17.1,13.9-31,31-31s31,13.9,31,31h87.9c0-17.1,13.9-31,31-31c17.1,0,31,13.9,31,31l32.2-0.7
		c0,0,4.8-1.6,4.8-11s-6.3-10.1-6.3-10.1l-15-0.2c0,0-0.5-9.4-14.3-23.4s-30.1-11.8-30.1-11.8l-213.6,1v42.3h0.5
		c0,0-3.6-1.7-3.9,6.8c-0.2,8.5,3.6,7,3.6,7L142.1,312.7z"/>
	<rect x="205.4" y="296.5" fill="#D23332" width="87" height="1.8"/>
	<rect x="114.9" y="296.5" fill="#D23332" width="27.7" height="1.8"/>
	<path fill="#FFFFFF" d="M386.6,247.6H384l-1.2-14.7c0,0-9.1-28.9-29-49.5c-0.5-0.5,4.4,0.1,4-0.4c-20.9-20.9-81.5-17-107.8-17.9
		c-26.3-1-124.5,5.8-134.3,14.7c-4.2,3.9-3.6,9.4-3.6,9.4v59.2h218.4c0,0,12.2-1.8,29.5,12.1c13,10.5,15.9,26.4,15.9,26.4h7.7
		l-0.2-23.3l3.4,0.2C390.7,258.5,389.2,249.5,386.6,247.6z M183.7,233.5c0,1.2-1,2.2-2.2,2.2h-43.3c-1.2,0-2.2-1-2.2-2.2v-42.9
		c0-1.2,1-2.2,2.2-2.2h43.3c1.2,0,2.2,1,2.2,2.2V233.5z M242.7,233.5c0,1.2-1,2.2-2.2,2.2h-43.3c-1.2,0-2.2-1-2.2-2.2v-42.9
		c0-1.2,1-2.2,2.2-2.2h43.3c1.2,0,2.2,1,2.2,2.2V233.5z M301.7,233.5c0,1.2-1,2.2-2.2,2.2h-43.3c-1.2,0-2.2-1-2.2-2.2v-42.9
		c0-1.2,1-2.2,2.2-2.2h43.3c1.2,0,2.2,1,2.2,2.2V233.5z M366.1,235.7h-53.4c-2.3,0-4.1-1.8-4.1-4.1v-39.1c0-2.3,1.8-4.1,4.1-4.1
		h24.9c15.2,0,32.1,30,32.4,37.6C370.2,233.6,368.3,235.7,366.1,235.7z"/>
</g>
</svg>
