<?xml version="1.0" encoding="utf-8"?>
<!-- Generator: Adobe Illustrator 17.1.0, SVG Export Plug-In . SVG Version: 6.00 Build 0)  -->
<!DOCTYPE svg PUBLIC "-//W3C//DTD SVG 1.1//EN" "http://www.w3.org/Graphics/SVG/1.1/DTD/svg11.dtd">
<svg version="1.1" id="Calque_1" xmlns="http://www.w3.org/2000/svg" xmlns:xlink="http://www.w3.org/1999/xlink" x="0px" y="0px"
	 viewBox="0 0 32 29" enable-background="new 0 0 32 29" xml:space="preserve">
<path fill="#F1CD71" d="M23,5H3C2.4,5,2,5.4,2,6v2c0,0.6,0.4,1,1,1h12.4c1.9-1.3,4.2-2,6.6-2c0.7,0,1.4,0.1,2,0.2V6
	C24,5.4,23.5,5,23,5z M27,0H7C6.4,0,6,0.4,6,1v2c0,0.6,0.4,1,1,1h20c0.6,0,1-0.4,1-1V1C28,0.4,27.5,0,27,0z M3,14h8.1
	c0.7-1.5,1.7-2.9,3-4H3c-0.6,0-1,0.4-1,1v2C2,13.6,2.4,14,3,14z M11.6,25H1c-0.6,0-1,0.4-1,1v2c0,0.6,0.4,1,1,1h14.4
	C13.8,28,12.5,26.6,11.6,25z M3,19h7c0-1.4,0.3-2.7,0.7-4H3c-0.6,0-1,0.4-1,1v2C2,18.6,2.4,19,3,19z M1,24h10.1
	c-0.6-1.2-0.9-2.6-1.1-4H1c-0.6,0-1,0.4-1,1v2C0,23.6,0.4,24,1,24z"/>
<path fill="#EFC75E" d="M22,9c5.5,0,10,4.5,10,10c0,5.5-4.5,10-10,10s-10-4.5-10-10S16.5,9,22,9z"/>
<path fill="#D3A146" d="M22,10.1c-4.9,0-8.9,4-8.9,8.9c0,4.9,4,8.9,8.9,8.9c4.9,0,8.9-4,8.9-8.9S26.9,10.1,22,10.1z M22,27
	c-4.4,0-8-3.6-8-8c0-4.4,3.6-8,8-8c4.4,0,8,3.6,8,8C30,23.4,26.4,27,22,27z"/>
<g>
	<rect x="4" y="5" fill="#D3A146" width="2" height="4"/>
	<rect x="4" y="10" fill="#D3A146" width="2" height="4"/>
	<rect x="4" y="15" fill="#D3A146" width="2" height="4"/>
	<rect x="8" y="10" fill="#D3A146" width="2" height="4"/>
	<rect x="6" y="20" fill="#D3A146" width="2" height="4"/>
	<rect x="24" fill="#D3A146" width="2" height="4"/>
	<rect x="12" y="5" fill="#D3A146" width="2" height="4"/>
	<path fill="#D3A146" d="M12,10v2.4c0.6-0.9,1.2-1.6,2-2.3V10H12z M10,24h1.1c-0.6-1.2-0.9-2.6-1.1-4h0V24z M8,15v4h2l0-0.1V15H8z"
		/>
	<rect x="8" y="5" fill="#D3A146" width="2" height="4"/>
	<rect x="20" fill="#D3A146" width="2" height="4"/>
	<rect x="2" y="20" fill="#D3A146" width="2" height="4"/>
	<rect x="2" y="25" fill="#D3A146" width="2" height="4"/>
	<path fill="#D3A146" d="M11.6,25H10v4h2v-3.4C11.9,25.4,11.7,25.2,11.6,25z"/>
	<rect x="6" y="25" fill="#D3A146" width="2" height="4"/>
	<path fill="#D3A146" d="M22,7V5h-2v2.2C20.6,7.1,21.3,7,22,7L22,7z"/>
	<rect x="12" fill="#D3A146" width="2" height="4"/>
	<rect x="8" fill="#D3A146" width="2" height="4"/>
	<rect x="16" fill="#D3A146" width="2" height="4"/>
	<path fill="#D3A146" d="M18,7.7V5h-2v3.6C16.6,8.2,17.3,7.9,18,7.7z"/>
</g>
<g>
	<path fill="#D3A146" d="M19.2,20.5c-0.5,0-0.9,0.4-0.9,0.9c0,0.5,0.4,0.9,0.9,0.9c0.5,0,0.9-0.4,0.9-0.9
		C20.1,20.9,19.7,20.5,19.2,20.5z M19.2,21.9c-0.3,0-0.5-0.2-0.5-0.5c0-0.3,0.2-0.5,0.5-0.5s0.5,0.2,0.5,0.5
		C19.7,21.7,19.5,21.9,19.2,21.9z"/>
	<circle fill="#D3A146" cx="19.2" cy="21.4" r="0.1"/>
	<path fill="#D3A146" d="M24.3,20.5c-0.5,0-0.9,0.4-0.9,0.9c0,0.5,0.4,0.9,0.9,0.9s0.9-0.4,0.9-0.9C25.2,20.9,24.8,20.5,24.3,20.5z
		 M24.3,21.9c-0.3,0-0.5-0.2-0.5-0.5c0-0.3,0.2-0.5,0.5-0.5s0.5,0.2,0.5,0.5C24.8,21.7,24.6,21.9,24.3,21.9z"/>
	<circle fill="#D3A146" cx="24.3" cy="21.4" r="0.1"/>
	<path fill="#D3A146" d="M18.2,21.4c0-0.6,0.5-1.1,1.1-1.1s1.1,0.5,1.1,1.1h3c0-0.6,0.5-1.1,1.1-1.1c0.6,0,1.1,0.5,1.1,1.1l1.1,0
		c0,0,0.2-0.1,0.2-0.4s-0.2-0.3-0.2-0.3l-0.5,0c0,0,0-0.3-0.5-0.8c-0.5-0.5-1-0.4-1-0.4l-7.2,0v1.4h0c0,0-0.1-0.1-0.1,0.2
		c0,0.3,0.1,0.2,0.1,0.2L18.2,21.4z"/>
	<rect x="20.3" y="20.8" fill="#D3A146" width="3" height="0.1"/>
	<rect x="17.2" y="20.8" fill="#D3A146" width="0.9" height="0.1"/>
	<path fill="#D3A146" d="M26.4,19.2L26.4,19.2l-0.1-0.5c0,0-0.3-1-1-1.7c0,0,0.1,0,0.1,0c-0.7-0.7-2.8-0.6-3.7-0.6
		c-0.9,0-4.2,0.2-4.6,0.5c-0.1,0.1-0.1,0.3-0.1,0.3v2h7.4c0,0,0.4-0.1,1,0.4c0.4,0.4,0.5,0.9,0.5,0.9h0.3l0-0.8l0.1,0
		C26.6,19.6,26.5,19.2,26.4,19.2z M19.6,18.7C19.6,18.7,19.5,18.8,19.6,18.7L18,18.8c0,0-0.1,0-0.1-0.1v-1.5c0,0,0-0.1,0.1-0.1h1.5
		c0,0,0.1,0,0.1,0.1V18.7z M21.6,18.7C21.6,18.7,21.5,18.8,21.6,18.7L20,18.8c0,0-0.1,0-0.1-0.1v-1.5c0,0,0-0.1,0.1-0.1h1.5
		c0,0,0.1,0,0.1,0.1V18.7z M23.6,18.7C23.6,18.7,23.5,18.8,23.6,18.7L22,18.8c0,0-0.1,0-0.1-0.1v-1.5c0,0,0-0.1,0.1-0.1h1.5
		c0,0,0.1,0,0.1,0.1V18.7z M25.8,18.8h-1.8c-0.1,0-0.1-0.1-0.1-0.1v-1.3c0-0.1,0.1-0.1,0.1-0.1h0.8c0.5,0,1.1,1,1.1,1.3
		C25.9,18.7,25.8,18.8,25.8,18.8z"/>
</g>
</svg>
