<?xml version="1.0" encoding="UTF-8" standalone="no"?>
<svg width="22px" height="24px" viewBox="0 0 22 24" version="1.1" xmlns="http://www.w3.org/2000/svg" xmlns:xlink="http://www.w3.org/1999/xlink" xmlns:sketch="http://www.bohemiancoding.com/sketch/ns">
    <!-- Generator: Sketch 3.3.3 (12081) - http://www.bohemiancoding.com/sketch -->
    <title>Shape</title>
    <desc>Created with Sketch.</desc>
    <defs></defs>
    <g id="Page-1" stroke="none" stroke-width="1" fill="none" fill-rule="evenodd" sketch:type="MSPage">
        <path d="M11,10.176 C5.085,10.176 0.451,8.091 0.451,5.429 C0.451,2.767 5.085,0.682 11,0.682 C16.915,0.682 21.549,2.767 21.549,5.429 C21.549,8.091 16.915,10.176 11,10.176 L11,10.176 Z M11,1.737 C6.509,1.737 1.506,3.253 1.506,5.429 C1.506,7.605 6.509,9.121 11,9.121 C15.491,9.121 20.494,7.605 20.494,5.429 C20.494,3.253 15.49,1.737 11,1.737 L11,1.737 Z M11,14.396 C5.085,14.396 0.451,12.311 0.451,9.649 L0.451,5.429 C0.451,5.137 0.687,4.902 0.978,4.902 C1.269,4.902 1.505,5.138 1.505,5.429 L1.505,9.649 C1.505,11.825 6.508,13.341 10.999,13.341 C15.49,13.341 20.493,11.825 20.493,9.649 L20.493,5.429 C20.493,5.137 20.729,4.902 21.02,4.902 C21.311,4.902 21.547,5.138 21.547,5.429 L21.547,9.649 C21.547,12.311 16.913,14.396 10.998,14.396 L11,14.396 Z M11,19.143 C5.085,19.143 0.451,17.058 0.451,14.396 L0.451,9.649 C0.451,9.358 0.687,9.122 0.978,9.122 C1.269,9.122 1.505,9.358 1.505,9.649 L1.505,14.396 C1.505,16.572 6.508,18.088 10.999,18.088 C15.49,18.088 20.493,16.571 20.493,14.396 L20.493,9.649 C20.493,9.358 20.729,9.122 21.02,9.122 C21.311,9.122 21.547,9.358 21.547,9.649 L21.547,14.396 C21.547,17.058 16.913,19.143 10.998,19.143 L11,19.143 Z M11,23.89 C5.085,23.89 0.451,21.805 0.451,19.143 L0.451,14.396 C0.451,14.105 0.687,13.869 0.978,13.869 C1.269,13.869 1.505,14.105 1.505,14.396 L1.505,19.143 C1.505,21.319 6.508,22.835 10.999,22.835 C15.49,22.835 20.493,21.318 20.493,19.143 L20.493,14.396 C20.493,14.105 20.729,13.869 21.02,13.869 C21.311,13.869 21.547,14.105 21.547,14.396 L21.547,19.143 C21.547,21.805 16.913,23.89 10.998,23.89 L11,23.89 Z" id="Shape" fill="#2F6592" sketch:type="MSShapeGroup"></path>
    </g>
</svg>