<?xml version="1.0" encoding="UTF-8" standalone="no"?>
<svg width="24px" height="23px" viewBox="0 0 24 23" version="1.1" xmlns="http://www.w3.org/2000/svg" xmlns:xlink="http://www.w3.org/1999/xlink" xmlns:sketch="http://www.bohemiancoding.com/sketch/ns">
    <!-- Generator: Sketch 3.3.3 (12081) - http://www.bohemiancoding.com/sketch -->
    <title>Shape</title>
    <desc>Created with Sketch.</desc>
    <defs></defs>
    <g id="Page-1" stroke="none" stroke-width="1" fill="none" fill-rule="evenodd" sketch:type="MSPage">
        <path d="M22.852,10.281 L13.004,0.433 C12.437,-0.134 11.517,-0.134 10.95,0.433 L8.905,2.478 L11.499,5.072 C12.102,4.868 12.793,5.005 13.274,5.485 C13.757,5.968 13.893,6.666 13.684,7.271 L16.184,9.771 C16.789,9.562 17.487,9.697 17.97,10.181 C18.645,10.856 18.645,11.95 17.97,12.625 C17.295,13.3 16.201,13.3 15.525,12.625 C15.017,12.117 14.892,11.371 15.149,10.745 L12.817,8.413 L12.817,14.549 C12.981,14.631 13.137,14.739 13.274,14.876 C13.949,15.551 13.949,16.645 13.274,17.321 C12.599,17.996 11.504,17.996 10.83,17.321 C10.155,16.645 10.155,15.551 10.83,14.876 C10.997,14.709 11.19,14.583 11.396,14.499 L11.396,8.306 C11.19,8.222 10.997,8.097 10.83,7.929 C10.319,7.418 10.196,6.667 10.458,6.04 L7.901,3.482 L1.148,10.234 C0.581,10.802 0.581,11.722 1.148,12.289 L10.997,22.137 C11.564,22.704 12.483,22.704 13.051,22.137 L22.853,12.335 C23.42,11.768 23.42,10.847 22.853,10.28 L22.852,10.281 Z" id="Shape" fill="#F64E19" sketch:type="MSShapeGroup"></path>
    </g>
</svg>