<?xml version="1.0" encoding="UTF-8" standalone="no"?>
<svg width="32px" height="32px" viewBox="0 0 32 32" version="1.1" xmlns="http://www.w3.org/2000/svg" xmlns:xlink="http://www.w3.org/1999/xlink" xmlns:sketch="http://www.bohemiancoding.com/sketch/ns">
    <!-- Generator: Sketch 3.3.3 (12081) - http://www.bohemiancoding.com/sketch -->
    <title>Shape</title>
    <desc>Created with Sketch.</desc>
    <defs></defs>
    <g id="Page-1" stroke="none" stroke-width="1" fill="none" fill-rule="evenodd" sketch:type="MSPage">
        <path d="M0.384,0.67 L0.384,31.966 L31.68,31.966 L31.68,0.67 L0.384,0.67 L0.384,0.67 Z M16.718,27.442 C16.257,28.379 15.376,28.995 14.356,29.292 C12.788,29.652 11.289,29.447 10.173,28.777 C9.426,28.319 8.843,27.614 8.448,26.802 C9.242,26.317 10.034,25.829 10.828,25.344 C10.849,25.353 10.911,25.466 10.995,25.612 C11.298,26.121 11.56,26.481 12.075,26.733 C12.581,26.905 13.69,27.016 14.119,26.126 C14.381,25.674 14.297,24.19 14.297,22.581 C14.297,20.052 14.309,17.565 14.309,15.005 L17.236,15.005 C17.236,17.693 17.251,20.388 17.236,23.072 C17.242,24.717 17.385,26.212 16.718,27.441 L16.718,27.442 Z M28.862,26.615 C27.845,30.096 22.171,30.209 19.905,27.909 C19.426,27.368 19.126,27.085 18.84,26.46 C20.045,25.767 20.045,25.767 21.217,25.089 C21.854,26.068 22.443,26.606 23.502,26.826 C24.939,27.001 26.385,26.508 26.061,24.982 C25.728,23.735 23.119,23.432 21.343,22.099 C19.54,20.888 19.118,17.946 20.599,16.265 C21.093,15.643 21.935,15.179 22.818,14.956 C23.124,14.917 23.434,14.876 23.74,14.837 C25.51,14.801 26.617,15.268 27.429,16.176 C27.655,16.405 27.839,16.652 28.185,17.188 C27.242,17.789 27.245,17.783 25.894,18.658 C25.605,18.036 25.127,17.646 24.621,17.477 C23.836,17.239 22.845,17.498 22.64,18.328 C22.569,18.584 22.584,18.822 22.697,19.244 C23.015,19.97 24.083,20.285 25.041,20.725 C27.799,21.844 28.73,23.042 28.959,24.47 C29.179,25.699 28.905,26.496 28.864,26.615 L28.862,26.615 Z" id="Shape" fill="#F1DC3F" sketch:type="MSShapeGroup"></path>
    </g>
</svg>