<?xml version="1.0" encoding="UTF-8" standalone="no"?>
<svg width="22px" height="23px" viewBox="0 0 22 23" version="1.1" xmlns="http://www.w3.org/2000/svg" xmlns:xlink="http://www.w3.org/1999/xlink" xmlns:sketch="http://www.bohemiancoding.com/sketch/ns">
    <!-- Generator: Sketch 3.3.3 (12081) - http://www.bohemiancoding.com/sketch -->
    <title>Shape</title>
    <desc>Created with Sketch.</desc>
    <defs></defs>
    <g id="Page-1" stroke="none" stroke-width="1" fill="none" fill-rule="evenodd" sketch:type="MSPage">
        <path d="M21.741,13.661 C21.501,13.383 21.091,13.459 20.774,13.522 C20.012,13.658 19.183,13.816 18.445,13.499 C19.763,11.419 20.8,9.148 21.38,6.751 C21.591,5.84 21.754,4.908 21.723,3.97 C21.7,3.445 21.627,2.886 21.306,2.451 C20.512,1.404 19.361,0.641 18.092,0.3 C16.507,-0.13 14.807,-0.002 13.248,0.48 C13.119,0.506 12.992,0.448 12.866,0.432 C11.451,0.145 9.891,0.258 8.664,1.077 C7.191,0.547 5.608,0.227 4.04,0.391 C2.874,0.512 1.703,1.054 1.034,2.047 C0.188,3.286 0.073,4.868 0.208,6.32 C0.48,8.248 0.95,10.146 1.548,11.997 C1.942,13.151 2.376,14.314 3.077,15.322 C3.433,15.817 3.906,16.316 4.543,16.394 C5.109,16.463 5.621,16.112 5.968,15.696 C6.568,14.978 7.185,14.273 7.825,13.591 C8.243,13.796 8.697,13.914 9.161,13.949 C8.91,14.247 8.703,14.636 8.303,14.753 C7.764,14.961 7.133,14.933 6.658,15.292 C6.384,15.488 6.371,15.915 6.617,16.14 C7.062,16.572 7.718,16.665 8.31,16.715 C9.149,16.779 9.997,16.497 10.634,15.947 C10.63,17.281 10.636,18.619 10.786,19.946 C10.861,20.723 11.196,21.497 11.787,22.02 C12.344,22.506 13.138,22.607 13.845,22.484 C14.539,22.352 15.252,22.144 15.794,21.67 C16.37,21.162 16.616,20.395 16.73,19.659 C16.937,18.34 17.094,17.015 17.244,15.69 C18.727,15.94 20.405,15.656 21.513,14.573 C21.75,14.35 21.975,13.964 21.741,13.661 L21.741,13.661 Z M18.45,1.117 C19.34,1.455 20.131,2.042 20.725,2.785 C21.008,3.14 21.044,3.617 21.062,4.053 C21.075,5.093 20.865,6.12 20.598,7.12 C20.087,8.971 19.311,10.745 18.336,12.397 C18.24,12.56 18.135,12.717 18.019,12.866 C18.01,12.821 17.992,12.729 17.983,12.683 C18.104,12.365 18.281,12.065 18.35,11.727 C18.594,10.774 18.388,9.793 18.3,8.834 C18.208,7.929 18.517,7.048 18.509,6.145 C18.544,5.703 18.369,5.285 18.199,4.888 C17.584,3.513 16.606,2.29 15.351,1.45 C15.045,1.24 14.703,1.093 14.398,0.882 C15.732,0.596 17.163,0.632 18.449,1.116 L18.45,1.117 Z M17.637,8.836 C17.715,9.907 18.026,11.057 17.521,12.073 C16.844,10.726 15.969,9.44 15.664,7.94 C15.578,7.463 15.556,6.859 15.98,6.527 C16.518,6.145 17.221,6.231 17.843,6.269 C17.816,7.128 17.552,7.971 17.638,8.836 L17.637,8.836 Z M5.534,15.181 C5.291,15.467 4.963,15.808 4.549,15.723 C4.065,15.583 3.757,15.141 3.487,14.744 C2.758,13.578 2.319,12.261 1.916,10.954 C1.465,9.407 1.085,7.835 0.866,6.237 C0.757,5.021 0.825,3.717 1.447,2.634 C1.913,1.814 2.782,1.291 3.695,1.12 C5.157,0.839 6.656,1.137 8.059,1.565 C7.44,2.245 6.958,3.046 6.677,3.923 C6.294,5.094 6.119,6.34 6.211,7.571 C6.264,8.438 6.241,9.309 6.12,10.169 C5.968,11.292 6.419,12.447 7.253,13.205 C6.685,13.869 6.083,14.502 5.533,15.182 L5.534,15.181 Z M6.814,11.158 C6.671,10.522 6.858,9.882 6.879,9.245 C6.928,8.524 6.877,7.802 6.863,7.081 C7.537,6.645 8.325,6.304 9.142,6.351 C9.565,6.369 9.955,6.668 10.057,7.085 C10.428,8.562 10.543,10.206 9.832,11.605 C9.584,12.145 9.383,12.704 9.21,13.271 C8.028,13.283 7.023,12.284 6.814,11.159 L6.814,11.158 Z M10.492,15.112 C9.75,16.117 8.265,16.309 7.192,15.762 C7.721,15.517 8.34,15.536 8.851,15.234 C9.345,14.968 9.541,14.383 10.003,14.082 C10.506,14.011 10.873,14.758 10.493,15.111 L10.492,15.112 Z M16.856,13.938 C16.574,14.392 16.673,14.946 16.604,15.45 C16.442,16.863 16.283,18.278 16.053,19.682 C15.944,20.355 15.658,21.07 15.023,21.405 C14.372,21.736 13.616,21.944 12.884,21.831 C12.189,21.709 11.751,21.061 11.554,20.43 C11.41,19.901 11.395,19.348 11.354,18.803 C11.284,17.488 11.283,16.17 11.317,14.854 C11.346,14.34 11.082,13.805 10.623,13.555 C10.401,13.43 10.141,13.413 9.893,13.393 C10.088,12.426 10.677,11.591 10.879,10.625 C11.141,9.43 10.996,8.186 10.728,7.006 C10.597,6.417 10.149,5.896 9.553,5.753 C8.635,5.522 7.709,5.881 6.888,6.265 C6.992,4.931 7.349,3.565 8.166,2.482 C8.767,1.676 9.699,1.138 10.694,1.009 C12.336,0.8 14.06,1.252 15.365,2.279 C16.443,3.131 17.295,4.285 17.754,5.583 C16.991,5.556 16.126,5.525 15.509,6.055 C14.949,6.527 14.877,7.332 15.003,8.008 C15.295,9.616 16.244,10.983 16.944,12.429 C17.13,12.768 17.38,13.064 17.618,13.368 C17.335,13.511 17.019,13.648 16.858,13.939 L16.856,13.938 Z M18.82,15.075 C18.316,15.135 17.792,15.153 17.306,14.986 C17.308,14.711 17.293,14.385 17.514,14.18 C17.689,14.051 17.938,13.932 18.14,14.073 C19,14.526 20,14.305 20.915,14.194 C20.356,14.738 19.582,14.992 18.82,15.075 L18.82,15.075 Z M16.178,6.728 C15.999,6.875 16.192,7.095 16.346,7.164 C16.719,7.383 17.23,7.077 17.242,6.651 C16.905,6.494 16.482,6.51 16.177,6.728 L16.178,6.728 Z M9.576,7.408 C9.735,7.318 9.903,7.071 9.719,6.922 C9.457,6.709 9.076,6.668 8.757,6.754 C8.654,6.79 8.546,6.86 8.567,6.986 C8.641,7.414 9.214,7.674 9.575,7.408 L9.576,7.408 Z" id="Shape" fill="#2F6592" sketch:type="MSShapeGroup"></path>
    </g>
</svg>