<?xml version="1.0" encoding="UTF-8" standalone="no"?>
<svg width="24px" height="25px" viewBox="0 0 24 25" version="1.1" xmlns="http://www.w3.org/2000/svg" xmlns:xlink="http://www.w3.org/1999/xlink" xmlns:sketch="http://www.bohemiancoding.com/sketch/ns">
    <!-- Generator: Sketch 3.3.3 (12081) - http://www.bohemiancoding.com/sketch -->
    <title>Shape</title>
    <desc>Created with Sketch.</desc>
    <defs></defs>
    <g id="Page-1" stroke="none" stroke-width="1" fill="none" fill-rule="evenodd" sketch:type="MSPage">
        <path d="M22.501,4.255 C22.445,4.232 22.388,4.21 22.331,4.188 C19.389,3.028 16.435,1.898 13.512,0.69 C12.59,0.309 11.803,0.267 10.854,0.655 C7.601,1.983 4.308,3.214 1.027,4.472 C0.794,4.561 0.717,4.675 0.726,4.923 C0.762,5.933 0.74,6.943 0.789,7.954 C0.853,9.279 0.813,10.608 0.859,11.935 C0.92,13.687 0.878,15.442 0.959,17.195 C0.959,17.622 0.973,18.049 0.954,18.474 C0.943,18.728 1.027,18.858 1.262,18.973 C4.739,20.675 8.21,22.388 11.679,24.105 C11.886,24.207 12.052,24.221 12.256,24.104 C12.55,23.934 12.86,23.79 13.166,23.64 C16.278,22.108 19.391,20.576 22.505,19.048 C22.694,18.956 22.813,18.867 22.819,18.623 C22.88,16.457 22.959,14.292 23.025,12.127 C23.065,10.825 23.055,9.52 23.133,8.22 C23.19,7.272 23.181,6.323 23.228,5.375 C23.278,4.366 23.451,4.633 22.5,4.256 L22.501,4.255 Z M11.263,21.898 C11.263,22.193 11.225,22.257 10.933,22.111 C8.188,20.744 5.439,19.387 2.686,18.036 C2.479,17.934 2.417,17.812 2.415,17.589 C2.395,15.715 2.368,13.84 2.332,11.966 C2.298,10.202 2.25,8.439 2.209,6.675 C2.206,6.542 2.209,6.409 2.209,6.212 C3.353,6.707 4.435,7.172 5.514,7.642 C7.342,8.439 9.168,9.242 10.999,10.033 C11.208,10.123 11.284,10.231 11.283,10.463 C11.269,14.274 11.263,18.086 11.264,21.897 L11.263,21.898 Z M11.819,8.808 C9.113,7.622 6.404,6.444 3.696,5.262 C3.623,5.23 3.526,5.222 3.483,5.091 C6.323,3.999 9.148,2.913 11.97,1.823 C12.107,1.77 12.223,1.78 12.355,1.832 C15.025,2.882 17.695,3.928 20.366,4.975 C20.421,4.997 20.485,5.01 20.514,5.109 C19.835,5.413 19.153,5.72 18.469,6.024 C16.402,6.942 14.335,7.858 12.268,8.776 C12.12,8.842 11.989,8.883 11.82,8.808 L11.819,8.808 Z M21.722,6.592 C21.671,8.477 21.619,10.363 21.561,12.248 C21.522,13.525 21.473,14.801 21.427,16.077 C21.407,16.636 21.369,17.195 21.369,17.754 C21.369,17.995 21.224,18.06 21.058,18.142 C18.688,19.307 16.319,20.473 13.949,21.638 C13.559,21.83 13.167,22.021 12.721,22.239 L12.721,21.287 C12.727,17.718 12.737,14.15 12.731,10.581 C12.731,10.264 12.832,10.123 13.125,9.994 C15.865,8.792 18.597,7.57 21.33,6.352 C21.728,6.175 21.734,6.171 21.722,6.591 L21.722,6.592 Z" id="Shape" fill="#8000FF" sketch:type="MSShapeGroup"></path>
    </g>
</svg>