<?xml version="1.0" encoding="UTF-8" standalone="no"?>
<svg width="24px" height="23px" viewBox="0 0 24 23" version="1.1" xmlns="http://www.w3.org/2000/svg" xmlns:xlink="http://www.w3.org/1999/xlink" xmlns:sketch="http://www.bohemiancoding.com/sketch/ns">
    <!-- Generator: Sketch 3.3.3 (12081) - http://www.bohemiancoding.com/sketch -->
    <title>Shape</title>
    <desc>Created with Sketch.</desc>
    <defs></defs>
    <g id="Page-1" stroke="none" stroke-width="1" fill="none" fill-rule="evenodd" sketch:type="MSPage">
        <path d="M3.113,22.421 L14.185,22.421 C14.185,22.421 11.729,16.843 12.353,11.723 C12.977,6.603 17.015,4.272 19.304,4.022 C21.593,3.772 22.842,5.188 22.842,5.188 L23.342,4.439 C23.342,4.439 20.054,1.109 15.891,1.484 C11.728,1.859 8.856,4.606 7.067,7.936 C5.277,11.266 4.236,13.597 3.529,17.094 C2.822,20.591 3.113,22.422 3.113,22.422 L3.113,22.421 Z M0.907,16.843 L3.071,17.01 L2.696,19.174 L0.656,18.924 L0.906,16.843 L0.907,16.843 Z M4.32,12.264 L4.903,10.641 L2.988,9.892 L2.364,11.64 L4.32,12.264 L4.32,12.264 Z M7.026,6.686 L8.15,5.354 L6.693,4.397 L5.528,5.687 L7.026,6.686 L7.026,6.686 Z M9.981,1.525 L10.98,2.732 L12.354,1.941 L11.355,0.817 L9.981,1.525 L9.981,1.525 Z M14.851,0.151 L15.101,1.358 L16.808,1.316 L16.641,0.234 L14.851,0.151 L14.851,0.151 Z M20.637,1.441 L20.595,2.19 L21.761,2.814 L22.011,2.439 L20.638,1.44 L20.637,1.441 Z M20.387,4.647 L20.387,5.271 L21.511,5.396 L21.511,4.896 L20.387,4.646 L20.387,4.647 Z M16.808,5.188 L17.349,6.187 L18.14,5.563 L17.974,4.897 L16.809,5.189 L16.808,5.188 Z M15.101,6.478 L15.933,7.727 L15.434,8.601 L14.227,7.269 L15.101,6.478 L15.101,6.478 Z M13.436,9.933 L12.895,11.015 L14.31,12.222 L14.643,10.848 L13.436,9.932 L13.436,9.933 Z M12.853,13.721 L12.77,15.178 L14.518,15.927 L14.435,14.553 L12.853,13.72 L12.853,13.721 Z M13.353,18.882 L13.77,20.381 L15.976,20.506 L15.185,18.883 L13.353,18.883 L13.353,18.882 Z" id="Shape" fill="#C22821" sketch:type="MSShapeGroup"></path>
    </g>
</svg>