<?xml version="1.0" encoding="UTF-8" standalone="no"?>
<svg width="24px" height="15px" viewBox="0 0 24 15" version="1.1" xmlns="http://www.w3.org/2000/svg" xmlns:xlink="http://www.w3.org/1999/xlink" xmlns:sketch="http://www.bohemiancoding.com/sketch/ns">
    <!-- Generator: Sketch 3.3.3 (12081) - http://www.bohemiancoding.com/sketch -->
    <title>Shape</title>
    <desc>Created with Sketch.</desc>
    <defs></defs>
    <g id="Page-1" stroke="none" stroke-width="1" fill="none" fill-rule="evenodd" sketch:type="MSPage">
        <path d="M23.343,13.017 C23.144,13.532 22.763,13.692 22.224,13.685 C20.401,13.663 18.578,13.677 16.755,13.676 C16.09,13.676 15.785,13.371 15.785,12.699 C15.784,9.987 15.784,7.275 15.785,4.564 C15.785,3.887 16.082,3.589 16.753,3.588 C18.594,3.587 20.436,3.599 22.277,3.58 C22.814,3.575 23.175,3.755 23.344,4.275 L23.344,13.016 L23.343,13.017 Z M22.778,12.024 L22.778,4.317 L16.328,4.317 L16.328,12.024 L22.778,12.024 L22.778,12.024 Z M21.097,12.825 C21.102,12.614 20.94,12.434 20.735,12.423 C20.518,12.411 20.326,12.587 20.32,12.805 C20.314,13.025 20.494,13.208 20.714,13.206 C20.928,13.204 21.092,13.041 21.097,12.825 L21.097,12.825 Z M18.787,12.82 C18.789,12.599 18.607,12.419 18.388,12.423 C18.185,12.427 18.009,12.606 18.005,12.811 C18.001,13.028 18.185,13.21 18.406,13.206 C18.614,13.202 18.786,13.029 18.787,12.82 L18.787,12.82 Z M19.563,12.423 C19.359,12.416 19.175,12.586 19.165,12.792 C19.154,13.015 19.323,13.2 19.544,13.206 C19.757,13.212 19.93,13.051 19.941,12.839 C19.952,12.616 19.783,12.431 19.563,12.423 L19.563,12.423 Z M1.187,14.117 C0.783,13.996 0.654,13.724 0.658,13.308 C0.674,11.404 0.664,9.499 0.665,7.595 C0.665,7.097 0.857,6.894 1.36,6.89 C2.193,6.882 3.026,6.883 3.86,6.89 C4.343,6.894 4.549,7.104 4.549,7.579 C4.551,9.52 4.545,11.461 4.554,13.402 C4.556,13.782 4.374,13.992 4.046,14.117 L1.187,14.117 L1.187,14.117 Z M1.05,8.135 L1.05,12.897 L4.162,12.897 L4.162,8.135 L1.05,8.135 L1.05,8.135 Z M17.632,2.916 L17.632,1.479 L3.112,1.479 L3.112,6.21 L2.113,6.21 L2.113,5.921 L2.113,1.223 C2.113,0.692 2.348,0.456 2.885,0.455 C7.867,0.454 12.85,0.454 17.832,0.455 C18.383,0.455 18.621,0.694 18.623,1.239 C18.625,1.788 18.623,2.336 18.623,2.916 L17.632,2.916 Z M15.106,9.397 L15.106,11.354 L5.228,11.354 L5.228,9.397 L15.106,9.397 L15.106,9.397 Z M10.807,10.357 C10.801,10.109 10.591,9.918 10.339,9.93 C10.099,9.942 9.915,10.14 9.922,10.38 C9.928,10.614 10.131,10.814 10.362,10.815 C10.604,10.816 10.813,10.601 10.808,10.357 L10.807,10.357 Z M12.863,13.644 L7.785,13.644 C8.046,13.371 8.31,13.184 8.445,12.928 C8.584,12.665 8.598,12.336 8.669,12.028 L12.095,12.028 C12.096,12.674 12.298,13.228 12.938,13.55 C12.913,13.581 12.888,13.612 12.863,13.644 L12.863,13.644 Z" id="Shape" fill="#E67E22" sketch:type="MSShapeGroup"></path>
    </g>
</svg>