<?xml version="1.0" encoding="UTF-8" standalone="no"?>
<svg width="22px" height="22px" viewBox="0 0 22 22" version="1.1" xmlns="http://www.w3.org/2000/svg" xmlns:xlink="http://www.w3.org/1999/xlink" xmlns:sketch="http://www.bohemiancoding.com/sketch/ns">
    <!-- Generator: Sketch 3.3.3 (12081) - http://www.bohemiancoding.com/sketch -->
    <title>Shape</title>
    <desc>Created with Sketch.</desc>
    <defs></defs>
    <g id="Page-1" stroke="none" stroke-width="1" fill="none" fill-rule="evenodd" sketch:type="MSPage">
        <path d="M1.248,11.554 C1.38,11.141 1.537,10.299 1.903,9.559 C3.684,5.965 6.439,3.351 10.118,1.763 C10.828,1.457 11.673,1.359 12.457,1.355 C13.437,1.35 14.094,2.032 14.18,3.021 C14.225,3.536 14.219,4.108 14.042,4.582 C12.299,9.244 9.01,12.366 4.386,14.12 C4.206,14.188 4.005,14.206 3.811,14.232 C2.237,14.448 1.224,13.556 1.248,11.554 L1.248,11.554 Z M13.349,8.099 C15.905,7.92 18.418,7.744 21.051,7.559 C20.859,7.376 20.751,7.256 20.626,7.156 C18.334,5.318 16.036,3.488 13.753,1.639 C13.527,1.456 13.387,1.168 13.085,0.768 C14.066,0.768 14.859,0.759 15.652,0.77 C16.609,0.784 17.589,0.691 18.519,0.863 C20.53,1.235 21.603,2.532 21.565,4.576 C21.53,6.492 21.332,8.405 21.19,10.318 C20.973,13.247 20.745,16.176 20.519,19.104 C20.48,19.609 20.433,20.114 20.382,20.714 C19.319,19.767 18.302,18.862 17.287,17.956 C17.156,17.839 17.047,17.688 16.902,17.595 C15.661,16.805 15.143,15.627 14.861,14.219 C14.493,12.379 13.954,10.573 13.49,8.752 C13.438,8.548 13.4,8.34 13.348,8.097 L13.349,8.099 Z M3.765,19.301 C4.312,19.225 4.824,19.193 5.312,19.067 C5.504,19.018 5.727,18.784 5.789,18.588 C6.249,17.133 6.671,15.665 7.106,14.203 C7.144,14.075 7.197,13.951 7.267,13.76 C9.929,14.612 12.57,15.458 15.289,16.328 C13.874,17.756 12.369,18.953 10.687,20.029 C13.684,20.258 16.681,20.487 19.678,20.716 C19.678,20.754 19.678,20.793 19.679,20.831 C19.033,20.877 18.387,20.925 17.741,20.968 C13.929,21.219 10.118,21.469 6.306,21.718 C5.7,21.758 5.093,21.824 4.488,21.813 C1.922,21.766 0.468,20.36 0.435,17.786 C0.416,16.34 0.565,14.892 0.657,13.446 C0.664,13.337 0.82,13.237 0.907,13.133 C1.036,13.248 1.224,13.338 1.287,13.482 C2.053,15.258 2.801,17.042 3.554,18.823 C3.615,18.966 3.68,19.107 3.765,19.301 L3.765,19.301 Z" id="Shape" fill="#B40A00" sketch:type="MSShapeGroup"></path>
    </g>
</svg>