<?xml version="1.0" encoding="utf-8"?>
<!-- Generator: Adobe Illustrator 17.1.0, SVG Export Plug-In . SVG Version: 6.00 Build 0)  -->
<!DOCTYPE svg PUBLIC "-//W3C//DTD SVG 1.1//EN" "http://www.w3.org/Graphics/SVG/1.1/DTD/svg11.dtd">
<svg version="1.1" id="Calque_1" xmlns="http://www.w3.org/2000/svg" xmlns:xlink="http://www.w3.org/1999/xlink" x="0px" y="0px"
	 viewBox="0 0 600 300" enable-background="new 0 0 600 300" xml:space="preserve">
<path fill="#2B2B2B" d="M-277.2,788.9c-7.9,0-14.2,6.4-14.2,14.2s6.4,14.2,14.2,14.2c7.9,0,14.2-6.4,14.2-14.2
	S-269.3,788.9-277.2,788.9z M-277.2,810.9c-4.2,0-7.7-3.4-7.7-7.7s3.4-7.7,7.7-7.7s7.7,3.4,7.7,7.7S-272.9,810.9-277.2,810.9z"/>
<circle fill="#2B2B2B" cx="-276.6" cy="803.2" r="1.3"/>
<path fill="#2B2B2B" d="M-194.8,788.9c-7.9,0-14.2,6.4-14.2,14.2s6.4,14.2,14.2,14.2s14.2-6.4,14.2-14.2S-186.9,788.9-194.8,788.9z
	 M-194.8,810.9c-4.2,0-7.7-3.4-7.7-7.7s3.4-7.7,7.7-7.7s7.7,3.4,7.7,7.7S-190.6,810.9-194.8,810.9z"/>
<circle fill="#2B2B2B" cx="-194.1" cy="803.2" r="1.3"/>
<path fill="#2B2B2B" d="M-294.3,803.2c0-9.4,7.6-17,17-17s17,7.6,17,17h48.3c0-9.4,7.6-17,17-17s17,7.6,17,17l17.7-0.4
	c0,0,2.7-0.9,2.7-6s-3.4-5.5-3.4-5.5l-8.3-0.1c0,0-0.3-5.1-7.9-12.9c-7.6-7.7-16.6-6.5-16.6-6.5l-117.4,0.6v23.2h0.3
	c0,0-2-1-2.2,3.7c-0.1,4.7,2,3.8,2,3.8L-294.3,803.2z"/>
<path fill="#2B2B2B" d="M-159.8,767.4h-1.4l-0.7-8.1c0,0-5-15.9-15.9-27.2c-0.3-0.3,2.4,0.1,2.2-0.2c-11.5-11.5-44.8-9.3-59.2-9.8
	c-14.5-0.6-68.5,3.1-73.8,8.1c-2.3,2.2-2,5.1-2,5.1v32.6h120.1c0,0,6.7-1,16.2,6.7c7.1,5.8,8.8,14.5,8.8,14.5h4.2l-0.1-12.8l1.9,0.1
	C-157.6,773.4-158.4,768.5-159.8,767.4z M-271.4,759.7c0,0.7-0.6,1.2-1.2,1.2h-23.8c-0.7,0-1.2-0.6-1.2-1.2v-23.6
	c0-0.7,0.6-1.2,1.2-1.2h23.8c0.7,0,1.2,0.6,1.2,1.2V759.7z M-239,759.7c0,0.7-0.6,1.2-1.2,1.2H-264c-0.7,0-1.2-0.6-1.2-1.2v-23.6
	c0-0.7,0.6-1.2,1.2-1.2h23.8c0.7,0,1.2,0.6,1.2,1.2V759.7z M-206.5,759.7c0,0.7-0.6,1.2-1.2,1.2h-23.8c-0.7,0-1.2-0.6-1.2-1.2v-23.6
	c0-0.7,0.6-1.2,1.2-1.2h23.8c0.7,0,1.2,0.6,1.2,1.2V759.7z M-171.2,760.9h-29.3c-1.2,0-2.3-1-2.3-2.3v-21.5c0-1.2,1-2.3,2.3-2.3
	h13.7c8.4,0,17.6,16.5,17.8,20.7C-168.9,759.7-169.9,760.9-171.2,760.9z"/>
<g>
	<g>
		<g>
			<path fill="#2B2B2B" d="M-700.3,768.8c-1.9,0-3.6-0.4-5-1c-1.3-0.7-2.6-1.6-3.5-2.8c-1-1.1-1.8-2.4-2.4-3.8
				c-0.6-1.3-1-2.8-1.2-4.2s-0.5-2.9-0.6-4.3s-0.1-2.7-0.1-3.9s0.1-2.7,0.3-4c0.2-1.4,0.5-2.9,0.9-4.3s1-2.8,1.6-4
				c0.7-1.3,1.5-2.6,2.5-3.5c1-1,2.2-1.9,3.6-2.6c1.4-0.7,3-1,4.7-1s3.1,0.5,4.5,1.4c1.1,0.9,2.2,2,3,3.3c0.8,1.2,1.5,2.8,2,4.3
				s0.9,3,1.2,4.6c0.3,1.5,0.6,3,0.7,4.5c0.1,1.4,0.2,2.7,0.2,3.6v0.1c-0.2,2.3-0.5,4.4-1,6.3c-0.5,2-1.2,3.7-2.2,5.2
				c-1,1.6-2.1,2.9-3.5,3.9s-3.1,1.7-5.1,2.1h-0.2L-700.3,768.8L-700.3,768.8z M-699.6,735.2c-0.8,0-1.5,0.2-2.1,0.6
				c-0.7,0.4-1.3,1-1.9,1.6c-0.6,0.8-1.1,1.6-1.6,2.6s-0.9,2-1.1,3c-0.3,1-0.6,2.1-0.7,3.1c-0.2,1-0.2,1.9-0.2,2.7
				c0,0.9,0,1.8,0.1,2.9c0,1,0.1,2.1,0.3,3c0.2,1,0.4,2,0.7,3c0.3,0.9,0.7,1.6,1,2.3c0.4,0.6,1,1,1.5,1.4c0.6,0.3,1.2,0.5,2.1,0.5
				h0.1c0.3,0,0.5,0,0.8,0c1,0,2-0.2,2.7-0.5c0.8-0.4,1.4-1,1.9-1.8c0.6-1,1-2.1,1.3-3.5c0.4-1.5,0.6-3.2,0.9-5.1
				c0-0.8,0-1.6-0.1-2.8c-0.1-1.1-0.2-2.4-0.4-3.6c-0.2-1.2-0.5-2.5-0.8-3.7c-0.3-1.1-0.7-2.3-1.2-3.1c-0.5-0.9-1-1.5-1.5-2
				C-698.5,735.4-699.1,735.2-699.6,735.2z"/>
		</g>
		<g>
			<path fill="#2B2B2B" d="M-661.6,740.9c0,1.4,0.1,2.8,0.1,4.2c0.1,2.4,0.2,4.7,0.4,7c0.2,2.4,0.3,4.8,0.4,7.2
				c0.1,2.4,0.2,4.9,0.2,7.2v2l-5.7-0.3l-0.1-1.7c0-0.7-0.1-1.6-0.2-2.9c-0.1-1.2-0.2-2.7-0.3-4.3l-0.4-5.2
				c-0.2-1.8-0.3-3.7-0.5-5.6c-0.2-1.9-0.3-3.8-0.4-5.7l-0.3-5.1c-0.1-1.6-0.2-3-0.2-4.3c0-1.2,0-2.2,0-3c0-1,0.4-1.8,1.1-2.5
				c0.7-0.6,1.5-1,2.4-1c0.7,0,1.3,0.1,2.1,0.4c1,0.4,1.7,1,2.2,1.6l15.8,25.5c-0.1-1.4-0.1-2.8-0.2-4.2c-0.1-2.1-0.1-4.1-0.1-6.2
				s0-4.1,0.1-6.1s0.3-3.9,0.6-5.7s0.8-3.5,1.2-5l0.3-0.9l0.9-0.3c0.7-0.3,1.2-0.4,1.7-0.4c0.1,0,0.3,0,0.4,0c0.3,0,0.6,0,0.9,0.1
				c1,0.2,1.5,1,1.7,1.9c0,0.2,0,0.5,0,0.7v1l-0.1,0.3c0,0-0.1,0.2-0.2,0.9c-0.1,0.6-0.2,1.4-0.4,2.6c-0.1,1-0.3,2.6-0.4,4.3
				c-0.1,1.8-0.2,4-0.3,6.8c-0.1,2.7-0.2,5.9-0.3,9.5c-0.1,3.7-0.1,8.1,0,13v1.8l-4.5,0.3L-661.6,740.9z"/>
		</g>
		<g>
			<path fill="#2B2B2B" d="M-586.3,768.9c-0.3,0-0.8,0-1.3,0c-0.7,0-1.3,0-2-0.1c-0.7,0-1.2-0.1-1.7-0.1h-0.8h-1.8l-0.1-1.8l-0.1-2
				l-2-24.6c0,0,0-0.1-0.1-0.1c-0.1-0.2-0.3-0.5-0.4-0.9l-0.3-0.7c-0.2-0.5-0.3-0.9-0.3-1.2c0-1,0.5-1.8,1.3-2.4
				c0.6-0.4,1.1-0.6,1.8-0.6c0.5,0,0.9-0.1,1.2-0.1h0.7c0.2,0,0.4,0,0.7,0c0.2,0,1.5,0.1,1.5,0.1h0.3l0.3,0.1c1.2,0.5,2.6,1,4.1,1.5
				c1.6,0.6,3.2,1.3,4.9,2.1s3.3,1.7,5,2.7s3.2,2.2,4.6,3.5s2.5,2.9,3.3,4.5c0.9,1.7,1.3,3.6,1.3,5.7c0,1.8-0.4,3.4-1,5
				c-0.7,1.4-1.6,2.7-2.8,3.7c-1,1-2.4,1.9-3.8,2.6c-1.3,0.7-2.8,1.2-4.2,1.6c-1.4,0.4-2.9,0.7-4.3,0.9
				C-583.8,768.8-585.1,768.9-586.3,768.9z M-585.9,763c0.5,0,0.8,0,1,0c1.5,0,3-0.2,4.5-0.6c1.4-0.4,2.7-1,3.8-1.6
				c1-0.7,1.9-1.6,2.6-2.8c0.7-1,1-2.4,1-3.9c0-1.1-0.3-2.2-0.8-3.2c-0.6-1.1-1.3-2.2-2.3-3c-1-1-2.1-1.9-3.3-2.7
				c-1.2-0.9-2.7-1.5-4-2.1s-2.8-1-4.1-1.3c-0.6-0.1-1.1-0.2-1.7-0.3v0.3c0,0.6,0.1,1.4,0.1,2.6c0.1,1.2,0.1,2.6,0.2,4.1
				s0.1,3,0.2,4.8c0.1,1.6,0.2,3.2,0.3,4.8c0.1,1.5,0.1,2.9,0.2,4.1c0,0.4,0,0.7,0,1L-585.9,763z"/>
		</g>
		<g>
			<path fill="#2B2B2B" d="M-544.7,768.8v-1.9c0-4.8-0.2-9.7-0.5-14.7c-0.3-4.9-1-9.6-2.2-14.3l-0.2-0.9l0.5-0.7
				c0.8-1,1.7-1.9,2.9-2.7c1-0.7,2.3-1.2,3.6-1.7c1.2-0.5,2.7-0.8,4.1-1c1.4-0.2,2.8-0.4,4.2-0.5c1.3-0.1,2.7-0.2,3.9-0.2
				s2.4-0.1,3.3-0.1c0.1,0,0.3,0,0.7,0c0.3,0,0.5,0,0.8,0.1c0.3,0,0.5,0,0.7,0h2.1l0.3,1.5c0.3,1.4,0,2.6-0.8,3.3
				c-0.6,0.6-1.4,1-2.3,1c-0.3,0-0.5,0-0.8,0c-0.4,0-0.9,0-1.3-0.1c-0.2,0-0.3,0-0.5-0.1h-0.1h-0.2c-0.2,0-0.7,0.1-1.5,0.3l-2.6,0.6
				c-1,0.2-1.9,0.4-3,0.7c-1,0.2-2.1,0.5-3,0.7c-1,0.2-1.8,0.4-2.6,0.6c-0.6,0.1-1,0.2-1.3,0.3c0,0.1,0,0.1,0,0.2
				c0,0.7,0,1.5,0.1,2.4c0.1,1,0.2,1.8,0.3,2.8s0.3,1.7,0.4,2.5c0,0.1,0,0.1,0,0.2c0.7,0,1.4-0.1,2.1-0.2c0.8-0.1,1.5-0.3,2.3-0.5
				c0.9-0.2,1.7-0.4,2.6-0.5c1-0.1,1.9-0.2,2.9-0.2h1.9v5.8h-1.9c-0.2,0-0.7,0-1.3,0.1s-1.2,0.1-2,0.3s-1.5,0.3-2.4,0.5
				c-0.8,0.2-1.4,0.3-2.1,0.5c-0.3,0.1-0.6,0.2-0.9,0.3v8.4c1,0,2.1-0.1,3-0.1c1.7-0.1,3.3-0.2,5-0.4c1.7-0.1,3.4-0.3,5.1-0.4
				c1.7-0.1,3.5-0.2,5.2-0.2h1.9v1.9c0,1-0.4,1.8-1,2.5c-0.5,0.4-1,0.8-1.5,1s-1,0.4-1.6,0.5l-1,0.2c-0.2,0-0.6,0.1-1.5,0.2
				c-0.8,0.1-1.7,0.2-2.8,0.3c-1.1,0.2-2.4,0.3-3.8,0.5c0,0-6.7,0.8-7.9,0.9c-1.1,0.1-2.1,0.2-2.9,0.3c-0.3,0.1-0.5,0.1-0.9,0.1
				L-544.7,768.8L-544.7,768.8z"/>
		</g>
		<g>
			<path fill="#2B2B2B" d="M-473.9,768.5c-0.2,0-0.4,0-0.5,0c-0.5-0.1-1-0.3-1.3-0.6c-0.6-0.4-0.9-1-1-1.7l-3.1-22.3l-4.2,10.3h-4.6
				l-2.2-4.3v17.6l-6.1,0.9l-0.1-2.1c-0.1-1.2-0.1-2.9-0.2-4.9c-0.1-1.9-0.1-4-0.2-6.3s-0.1-4.6-0.1-7l-0.1-6.8c0-2.2-0.1-4.2-0.1-6
				c-0.1-1.7-0.1-3.2-0.2-4.4l-0.1-2h2c0.2,0,0.3,0,0.5,0c0.3,0,0.5-0.1,0.8-0.1c0.1,0,0.2,0,0.3,0c0.5,0,0.9,0.1,1.2,0.3
				c0.6,0.3,1,0.8,1.3,1.4l5.5,12.4l4.6-11.5c0.2-0.6,0.6-1,1.1-1.3c0.3-0.2,0.6-0.4,0.9-0.5c0.4-0.2,0.8-0.3,1.1-0.4
				c0.4-0.1,0.8-0.1,1-0.1c1,0,2,0.8,2,2.1c0,0.1,0,0.4,0.1,1c0.1,0.7,0.2,1.7,0.4,3c0.2,1.4,0.5,3.4,0.8,5.9
				c0.4,2.6,0.9,5.8,1.4,9.7c0.6,3.9,1.2,8.8,2.2,14.6l0.1,0.6l-0.2,0.5c-0.4,1-1,1.4-1.5,1.6C-473,768.4-473.4,768.5-473.9,768.5z"
				/>
		</g>
		<g>
			<path fill="#2B2B2B" d="M-433.3,767.7l-2.1-11.8c-0.1,0-0.2,0-0.3,0c-0.4,0-0.9,0-1.4,0.1c-0.9,0.1-1.7,0.2-2.7,0.3s-2,0.2-3,0.3
				c-0.7,0-1.3,0.1-2,0.1c-0.1,0-0.2,0-0.2,0v11.1h-6.6v-1.9c0-0.1,0-0.4,0-0.8c0-0.3,0-0.6,0-0.9c0-0.4,0-0.8,0.1-1.1
				c0-0.2,0-0.3,0-0.4v-0.2c0.2-2.1,0.4-4.2,0.5-6.3c0.1-2.2,0.3-4.3,0.5-6.4s0.5-4.1,0.8-6c0.3-2,0.9-3.8,1.4-5.4
				c0.7-1.7,1.5-3.1,2.5-4.4c1-1.3,2.5-2.3,4.1-3l0.3-0.1h0.4c1.8,0,3.3,0.6,4.7,1.6c1.2,1,2.2,2.2,3.1,3.7c0.9,1.4,1.5,3,2.1,5
				c0.6,1.8,1,3.6,1.3,5.6c0.3,1.9,0.6,3.9,0.8,5.8c0.2,1.9,0.3,3.8,0.4,5.4c0.1,1.7,0.1,3.2,0.1,4.6c0,1.3,0,2.4,0,3.1v1.9
				L-433.3,767.7L-433.3,767.7z M-440.6,737.4c-0.2,0.1-0.4,0.2-0.5,0.4c-0.5,0.5-0.9,1.1-1.1,2c-0.4,1-0.7,2-0.9,3.2
				c-0.2,1.2-0.4,2.5-0.4,3.6c-0.1,1.2-0.1,2.4-0.1,3.4c0,0.2,0,0.3,0,0.5c1-0.1,2.2-0.2,3.2-0.3c1.2-0.2,2.6-0.4,3.7-0.6l0.1-1.4
				c0-0.3,0-0.5,0-0.6c0-1.1-0.1-2.2-0.2-3.2s-0.3-1.9-0.7-2.8c-0.3-0.9-0.8-1.6-1.3-2.4C-439.2,738.6-439.9,738-440.6,737.4z"/>
		</g>
		<g>
			<path fill="#2B2B2B" d="M-402.4,740.9c0,1.4,0.1,2.8,0.1,4.2c0.1,2.4,0.2,4.7,0.4,7c0.2,2.4,0.3,4.8,0.4,7.2s0.2,4.9,0.2,7.2v2
				l-5.7-0.3l-0.1-1.7c0-0.7-0.1-1.6-0.2-2.9c-0.1-1.2-0.2-2.7-0.3-4.3l-0.4-5.2c-0.2-1.8-0.3-3.7-0.5-5.6c-0.2-1.9-0.3-3.8-0.4-5.7
				l-0.3-5.1c-0.1-1.6-0.2-3-0.2-4.3c0-1.2,0-2.2,0-3c0-1,0.4-1.8,1.1-2.5c0.7-0.6,1.5-1,2.4-1c0.7,0,1.3,0.1,2.1,0.4
				c1,0.4,1.7,1,2.2,1.6l15.8,25.5c-0.1-1.4-0.1-2.8-0.2-4.2c-0.1-2.1-0.1-4.1-0.1-6.2s0-4.1,0.1-6.1s0.3-3.9,0.6-5.7
				c0.3-1.9,0.8-3.5,1.2-5l0.3-0.9l0.9-0.3c0.7-0.3,1.2-0.4,1.7-0.4c0.1,0,0.3,0,0.4,0c0.3,0,0.6,0,0.9,0.1c1,0.2,1.5,1,1.7,1.9
				c0,0.2,0,0.5,0,0.7v1l-0.1,0.3c0,0-0.1,0.2-0.2,0.9c-0.1,0.6-0.2,1.4-0.4,2.6c-0.1,1-0.3,2.6-0.4,4.3c-0.1,1.8-0.2,4.1-0.3,6.8
				c-0.1,2.7-0.2,5.9-0.3,9.5c-0.1,3.7-0.1,8.1,0,13v1.8l-4.5,0.3L-402.4,740.9z"/>
		</g>
		<g>
			<path fill="#2B2B2B" d="M-348.2,768.9c-0.3,0-0.8,0-1.3,0c-0.7,0-1.3,0-2-0.1c-0.7,0-1.2-0.1-1.7-0.1h-0.8h-1.8l-0.1-1.8l-0.1-2
				l-2-24.6c0,0,0-0.1-0.1-0.1c-0.1-0.2-0.3-0.5-0.4-0.9l-0.3-0.7c-0.2-0.5-0.3-0.9-0.3-1.2c0-1,0.5-1.8,1.3-2.4
				c0.6-0.4,1.1-0.6,1.8-0.6c0.5,0,0.9-0.1,1.2-0.1h0.7c0.2,0,0.4,0,0.7,0c0.2,0,1.5,0.1,1.5,0.1h0.3l0.3,0.1c1.2,0.5,2.6,1,4.1,1.5
				c1.6,0.6,3.2,1.3,4.9,2.1c1.7,0.8,3.3,1.7,5,2.7s3.2,2.2,4.6,3.5c1.3,1.3,2.5,2.9,3.3,4.5c0.9,1.7,1.3,3.6,1.3,5.7
				c0,1.8-0.4,3.4-1,5c-0.7,1.4-1.6,2.7-2.8,3.7c-1,1-2.4,1.9-3.8,2.6c-1.3,0.7-2.8,1.2-4.2,1.6c-1.4,0.4-2.9,0.7-4.3,0.9
				C-345.6,768.8-346.9,768.9-348.2,768.9z M-347.7,763c0.5,0,0.8,0,1,0c1.5,0,3-0.2,4.5-0.6c1.4-0.4,2.7-1,3.8-1.6
				c1-0.7,1.9-1.6,2.6-2.8c0.7-1,1-2.4,1-3.9c0-1.1-0.3-2.2-0.8-3.2c-0.6-1.1-1.3-2.2-2.3-3c-1-1-2.1-1.9-3.3-2.7
				c-1.2-0.9-2.7-1.5-4-2.1s-2.8-1-4.1-1.3c-0.6-0.1-1.1-0.2-1.7-0.3v0.3c0,0.6,0.1,1.4,0.1,2.6c0.1,1.2,0.1,2.6,0.2,4.1
				s0.1,3,0.2,4.8c0.1,1.6,0.2,3.2,0.3,4.8c0.1,1.5,0.1,2.9,0.2,4.1c0,0.4,0,0.7,0,1L-347.7,763z"/>
		</g>
	</g>
</g>
<path fill="#2B2B2B" d="M-327.6,800.6c-41.4,1.1-84.6,1.1-126.4-0.2c-4.5-0.2-8.9-0.4-13.3-0.6s-8.9-0.5-13.3-0.8c-4,0-8,0-12,0.1
	c-20,0.2-39.9,1-60,1.9c-4.6,0-9.2,0.1-13.8,0c-40.9-3-80.3-5.6-121.3-1.5c-4.6,0.1-9.1,0.2-13.7,0.4s-9.1,0.4-13.7,0.6
	c0-2.6,0-7.6,0-7.6c4.6-0.4,9.1-0.7,13.6-1c4.6-0.3,9-0.4,13.6-0.6c43.7-6.1,89.4,0.2,134,1.1c3.4-0.1,7-0.2,10.4-0.3
	c17.3-0.5,34.8-1.1,52.1-1.4c4.2-0.1,8.4-0.1,12.6-0.2c8.3,0.5,16.6,0.9,24.9,1.3c4.2,0.2,8.3,0.4,12.5,0.6
	c38.3,2.8,76.3,1.5,113.9-0.3C-327.7,792.4-327.6,800.6-327.6,800.6z"/>
<g>
	<path d="M-814,506v15c-16.8,12.8-30.8,19.3-42,19.3c-4.9,0-8.6-1.2-10.9-3.6c-4.5-4.6-6.8-11.7-6.8-21.2c0-7.4,1.4-17.2,4.1-28.9
		c2.3-9.8,4.8-18.2,7.3-25.4c4.4-11.7,7.4-19.1,9.1-22.6c2.7-5.5,6-10.4,9.9-14.5c4-4.1,8.2-6.2,12.8-6.2c3.5,0,6.3,1.5,8.6,4.6
		s3.5,6.8,3.5,11.2c0,9.5-4.2,21.1-12.6,34.8c-5.9,9.5-14.9,21.7-27.2,36.5c-0.3,2.1-0.5,5.7-0.9,10.8c-0.1,8.5,2.7,12.7,8.3,12.7
		c4.6,0,10.4-2.1,17.2-6.3C-826.5,517.7-820,512.4-814,506z M-855.6,487.2c9.6-13.6,15.9-23.1,19.1-28.6c5.1-9,7.6-16.6,7.6-22.6
		c0-4.1-1.2-6.2-3.3-6.2c-2.3,0-4.5,2.3-6.8,6.9C-846.2,451.9-851.8,468.7-855.6,487.2z"/>
	<path d="M-744.1,506v14.9c-18.1,13.2-35.4,19.8-52.1,19.8c-6.2,0-10.7-2.7-13.6-8.2c-2.4-4.4-3.6-10-3.6-17
		c0-12.8,3.9-24.3,11.7-34.3c7.7-10,16.6-15,26.6-15c9.5,0,14.3,4.5,14.3,13.4c0,8-4.1,15-12.5,21.2c-4.8,3.5-11.8,7.1-21.4,10.9
		l-3.6,1.4c-0.4,10.7,2.7,15.9,9.1,15.9C-776.8,529.1-761.6,521.4-744.1,506z M-797.1,501.5c16.1-5.7,24.1-12.5,24.1-20.2
		c0-2.7-1.3-4-4-4c-4,0-8.1,2.4-12.1,7.2C-792.9,489.3-795.6,494.9-797.1,501.5z"/>
	<path d="M-582.2,506v15.2c-5,3.5-10.1,5.1-15.7,5.1c-7.2,0-13.9-3.6-20-10.8c-9.8,16.6-20,24.8-30.6,24.8c-4.4,0-8.1-1.8-11.3-5.5
		c-3.1-3.7-5.3-8.7-6.2-15.2c-10,13.9-19.7,20.8-28.8,20.8c-7.7,0-11.7-8-11.7-24c0-14.3,3.5-29.8,10.4-46.4l15.8-1.5
		c-7.7,19.9-11.7,36.1-11.7,48.4c0,6.4,1.3,9.5,4,9.5c2.3,0,5.3-1.7,9-5c4.6-4.2,9.1-10,13.1-17.5c1.5-8.7,4.9-20,9.6-34.2l16.2-1.3
		c-7.8,21.6-11.8,37.4-11.8,47c0,8.3,2.1,12.6,6.2,12.6c2.7,0,6.2-2.2,10.3-6.7s7.7-9.8,10.7-15.9c-0.8-3.6-1.3-6.6-1.3-8.9
		c0-5,0.6-10,2.1-15.3c1.3-5.1,2.8-8.6,4.5-10.1c2.1-1.8,5.7-2.7,10.9-2.7c1.7,0,2.6,1.5,2.6,4.6c0,7.3-2.3,18-6.9,32
		c5.1,6.8,10.1,10.1,14.9,10.1C-593.3,515.1-588.2,512-582.2,506z"/>
	<path d="M-495.3,506v15.2c-13.6,12.7-24.4,19.1-32.4,19.1c-6.4,0-9.5-5.7-9.1-17.1c-10.4,11.4-18.8,17.1-25.2,17.1
		c-5.3,0-10-2.6-13.9-7.6c-4-5-5.9-11-5.9-17.9c0-12.7,4.1-23.9,12.2-33.3c7.6-8.7,15.5-13.2,24.3-13.2c6.9,0,12.8,3.9,17.9,11.4
		l3-11.4h14.8l-9.2,37.5c-1.9,7.8-3,13.4-3,16.7c0,2.3,0.6,3.5,2.1,3.5C-515.8,526-507.5,519.3-495.3,506z M-534,508.4l4.1-18
		c-4.1-4.8-6.8-7.7-8-8.6c-1.8-1.5-3.9-2.3-6-2.3c-5.7,0-10.8,3.2-15.3,9.8c-4.6,6.6-6.9,13.9-6.9,22c0,4.9,0.9,8.9,2.6,12.1
		c1.7,3.2,3.9,4.9,6.4,4.9c5.8,0,13.2-6.2,22.2-18.6C-534.6,509.1-534.3,508.7-534,508.4z"/>
	<path d="M-453.1,540.5l3.5-17.2l-2.7,3c-8.9,9.4-16.6,14-23.1,14c-5.5,0-10.1-2.4-13.9-7.3c-3.7-4.9-5.7-11-5.7-18.4
		c0-11.9,3.7-22.6,11.2-31.9c7.4-9.2,16.1-14,25.6-14c3.1,0,5.8,0.8,8.2,2.3c2.3,1.5,5.4,4.5,9.2,9l2.4-11.3h14.5l-12.2,60
		c8.6-5.9,17.7-13.5,27.6-22.7v15.2c-7.4,7.1-17.6,15-30.7,23.8c-3.2,14.8-6.8,25.2-10.7,31.1c-3.9,5.9-9.1,8.9-15.7,8.9
		c-5,0-9.2-1.2-12.7-3.6c-3.5-2.3-5.3-5.3-5.3-8.6c0-6.7,8.6-16.2,25.7-28.4C-456.7,543.4-455.1,542.1-453.1,540.5z M-446,506
		l3.1-14.5c-3.5-4.4-5.9-7.2-7.3-8.6c-2.3-2.1-4.6-3-7.1-3c-4.6,0-9.2,2.4-13.6,7.4c-5.5,6.2-8.3,14.4-8.3,24.5
		c0,4.8,0.8,8.7,2.4,11.7c1.7,3.1,3.9,4.6,6.4,4.6c4.8,0,11.3-5.1,19.4-15.3l3-3.6C-446.7,507.5-446,506.5-446,506z M-456,555
		c-10.4,7.7-15.7,13.1-15.7,16.2c0,2.7,1.9,4,5.7,4c2.4,0,4.2-1.3,5.7-3.9C-459.1,568.8-457.6,563.4-456,555z"/>
	<path d="M-321.4,506v15.2c-4.2,3.3-8.7,5-13.6,5c-6.3,0-12.1-2.8-17.3-8.6c-8.6,15.2-19.7,22.9-32.9,22.9c-7.1,0-12.7-2.3-16.7-6.8
		s-6-10.8-6-18.9c0-8.2,1.9-16.1,5.8-23.5c3.9-7.4,9-13.1,15.4-17.1c5.7-3.6,12.7-5.3,21.2-5.3l-0.8,10.1c-6.7,1-11.9,3.3-15.9,6.9
		c-6.6,5.9-9.9,14.8-9.9,26.7c0,10.8,3.5,16.2,10.5,16.2c4.5,0,8.7-2.3,12.7-7.1c4.1-4.8,6.7-10.3,7.8-16.8c-1.2-4-1.7-7.2-1.7-9.5
		c0-8.6,1.4-15.4,4.4-20.3h11.8c0.9,3.3,1.3,6.9,1.3,10.5c0,6.3-1,13-3.1,20c5.5,5.8,10.3,8.7,14.3,8.7
		C-330.3,514.2-326.1,511.4-321.4,506z"/>
	<path d="M-309.7,468.7h15.2c-3.1,8.5-5.7,16.2-7.4,23c9.2-8.7,16.4-14.8,21.4-18.1s9.5-4.9,13.5-4.9c3.1,0,5.8,1.5,7.8,4.8
		c2.1,3.1,3.1,6.9,3.1,11.6c0,4.4-1.7,11.3-4.9,20.8c-2.7,7.7-4,13.4-4,16.7s1,5,3,5c1.5,0,4.9-1.8,10-5.4
		c6.4-4.5,12.3-9.9,17.7-16.2v15l-3.6,3.3c-11.8,10.7-21.6,15.9-29.3,15.9c-3.7,0-6.7-1.5-9-4.5s-3.3-7.1-3.3-12.2
		c0-4.4,1.7-11.2,4.9-20.7c2.4-7.1,3.6-11.8,3.6-14.4c0-3.7-0.9-5.5-2.7-5.5c-3.7,0-13.6,8-29.4,23.9l-1.9,1.8
		c-0.4,3.5-0.5,7.8-0.5,12.8c0,3.7,0.1,8.5,0.4,14l0.1,4.1h-14.3c-0.3-2.2-0.4-5.5-0.6-10.1l-0.4-9.5V514
		C-320.5,503.4-316.9,488.3-309.7,468.7z"/>
</g>
<g>
	<path d="M338.6,1181.3c-12.8,0-23.2,10.4-23.2,23.2s10.4,23.2,23.2,23.2c12.8,0,23.2-10.4,23.2-23.2S351.5,1181.3,338.6,1181.3z
		 M338.6,1217.1c-6.9,0-12.6-5.7-12.6-12.6s5.7-12.6,12.6-12.6s12.6,5.7,12.6,12.6C351.1,1211.4,345.6,1217.1,338.6,1217.1z"/>
	<circle cx="338.6" cy="1204.5" r="2.3"/>
	<path d="M473.4,1181.3c-12.8,0-23.2,10.4-23.2,23.2s10.4,23.2,23.2,23.2c12.8,0,23.2-10.4,23.2-23.2S486.2,1181.3,473.4,1181.3z
		 M473.4,1217.1c-6.9,0-12.6-5.7-12.6-12.6s5.7-12.6,12.6-12.6s12.6,5.7,12.6,12.6C485.9,1211.4,480.3,1217.1,473.4,1217.1z"/>
	<circle cx="473.4" cy="1204.5" r="2.3"/>
	<path d="M310.6,1204.5c0-15.4,12.5-27.9,27.9-27.9s27.9,12.5,27.9,27.9h79c0-15.4,12.5-27.9,27.9-27.9s27.9,12.5,27.9,27.9l29-0.6
		c0,0,4.4-1.4,4.4-9.9s-5.7-9.1-5.7-9.1l-13.5-0.3c0,0-0.4-8.5-12.8-21.1c-12.3-12.6-27-10.7-27-10.7l-191.9,0.9v38h0.4
		c0,0-3.2-1.5-3.5,6s3.2,6.3,3.2,6.3L310.6,1204.5z"/>
	<path d="M530.4,1146.1H528l-1-13.2c0,0-8.2-25.9-26.1-44.4c-0.4-0.4,4,0,3.6-0.4c-18.8-18.8-73.2-15.3-96.8-16.1
		c-23.6-0.9-111.9,5.3-120.6,13.2c-3.9,3.5-3.2,8.5-3.2,8.5v53.2H480c0,0,10.9-1.7,26.5,10.8c11.7,9.4,14.4,23.8,14.4,23.8h6.9
		l-0.3-20.9l3.1,0.3C534,1155.8,532.7,1147.7,530.4,1146.1z M348.1,1133.3c0,1-0.9,1.9-1.9,1.9h-38.9c-1,0-1.9-0.9-1.9-1.9v-38.5
		c0-1,0.9-1.9,1.9-1.9h38.9c1,0,1.9,0.9,1.9,1.9V1133.3z M401.2,1133.3c0,1-0.9,1.9-1.9,1.9h-38.9c-1,0-1.9-0.9-1.9-1.9v-38.5
		c0-1,0.9-1.9,1.9-1.9h38.9c1,0,1.9,0.9,1.9,1.9V1133.3z M454.1,1133.3c0,1-0.9,1.9-1.9,1.9h-38.9c-1,0-1.9-0.9-1.9-1.9v-38.5
		c0-1,0.9-1.9,1.9-1.9h38.9c1,0,1.9,0.9,1.9,1.9V1133.3z M512,1135.4h-47.9c-2.1,0-3.7-1.7-3.7-3.7v-35.2c0-2.1,1.7-3.7,3.7-3.7
		h22.3c13.6,0,28.9,27,29,33.8C515.6,1133.5,513.9,1135.4,512,1135.4z"/>
</g>
<g>
	<g>
		<g>
			<path fill="#2B2B2B" d="M42.3,172.2c-2.6,0-4.9-0.5-6.9-1.4c-1.8-0.9-3.5-2.2-4.8-3.8s-2.5-3.3-3.3-5.2c-0.8-1.8-1.3-3.8-1.7-5.7
				s-0.7-3.9-0.8-5.9c-0.1-2-0.1-3.6-0.1-5.3s0.1-3.6,0.4-5.5c0.3-2,0.7-3.9,1.2-5.9s1.3-3.8,2.2-5.5c0.9-1.8,2.1-3.5,3.4-4.8
				c1.4-1.4,3-2.6,4.9-3.5c2-0.9,4-1.3,6.4-1.3c2.3,0,4.3,0.7,6.1,2c1.6,1.2,3,2.7,4.2,4.6c1,1.7,2.1,3.8,2.7,5.9
				c0.7,2.1,1.2,4.2,1.7,6.3c0.4,2.1,0.8,4.2,0.9,6.1c0.1,2,0.3,3.6,0.3,4.9v0.1c-0.3,3.1-0.7,6-1.3,8.6c-0.7,2.7-1.7,5.1-3,7.2
				c-1.3,2.2-2.9,3.9-4.8,5.3c-2,1.4-4.3,2.3-7,2.9h-0.3L42.3,172.2L42.3,172.2z M43.3,126.2c-1,0-2.1,0.3-2.9,0.8
				c-0.9,0.5-1.8,1.3-2.6,2.2c-0.8,1-1.6,2.2-2.2,3.5s-1.2,2.7-1.6,4.2c-0.4,1.4-0.8,2.9-0.9,4.3c-0.3,1.4-0.3,2.6-0.3,3.6
				c0,1.2,0,2.5,0.1,3.9c0,1.4,0.1,2.9,0.4,4.2c0.3,1.4,0.5,2.7,0.9,4c0.4,1.2,0.9,2.2,1.4,3.1c0.5,0.8,1.3,1.4,2.1,2
				c0.8,0.4,1.7,0.7,2.9,0.7h0.1c0.4,0,0.7,0,1,0c1.4,0,2.7-0.3,3.6-0.7c1-0.5,2-1.3,2.6-2.5c0.8-1.3,1.4-2.9,1.8-4.8
				c0.5-2.1,0.8-4.4,1.2-7c0-1,0-2.2-0.1-3.8s-0.3-3.3-0.5-4.9c-0.3-1.7-0.7-3.4-1-5.1c-0.4-1.6-0.9-3.1-1.7-4.3
				c-0.7-1.2-1.3-2.1-2.1-2.7C44.8,126.5,44,126.2,43.3,126.2z"/>
		</g>
		<g>
			<path fill="#2B2B2B" d="M95.3,133.9c0,2,0.1,3.8,0.1,5.7c0.1,3.3,0.3,6.4,0.5,9.6c0.3,3.3,0.4,6.5,0.5,9.9
				c0.1,3.3,0.3,6.6,0.3,9.9v2.7l-7.8-0.4l-0.1-2.3c0-0.9-0.1-2.2-0.3-3.9c-0.1-1.7-0.3-3.6-0.4-5.9l-0.5-7.2
				c-0.3-2.5-0.4-5.1-0.7-7.7c-0.3-2.6-0.4-5.2-0.5-7.8l-0.4-7c-0.1-2.2-0.3-4.2-0.3-5.9s0-3,0-4c0-1.3,0.5-2.5,1.6-3.4
				c0.9-0.8,2.1-1.3,3.3-1.3c0.9,0,1.8,0.1,2.9,0.5c1.4,0.5,2.3,1.3,3,2.2l21.6,34.9c-0.1-2-0.1-3.8-0.3-5.7
				c-0.1-2.9-0.1-5.6-0.1-8.5s0-5.6,0.1-8.3s0.4-5.3,0.8-7.8s1-4.8,1.7-6.9l0.4-1.2l1.2-0.4c0.9-0.4,1.7-0.5,2.3-0.5
				c0.1,0,0.4,0,0.5,0c0.4,0,0.8,0,1.2,0.1c1.3,0.3,2.1,1.3,2.3,2.6c0,0.3,0,0.7,0,0.9v1.3l-0.1,0.4c0,0-0.1,0.3-0.3,1.2
				c-0.1,0.8-0.3,2-0.5,3.5c-0.1,1.4-0.4,3.5-0.5,5.9c-0.1,2.5-0.3,5.5-0.4,9.2c-0.1,3.6-0.3,8.1-0.4,13c-0.1,5.1-0.1,11.1,0,17.7
				v2.5l-6,0.5L95.3,133.9z"/>
		</g>
		<g>
			<path fill="#2B2B2B" d="M198.2,172.3c-0.4,0-1,0-1.8,0c-0.9,0-1.8,0-2.7-0.1c-0.9,0-1.7-0.1-2.3-0.1h-1h-2.5l-0.1-2.5l-0.1-2.7
				l-2.7-33.6c0,0,0-0.1-0.1-0.1c-0.1-0.3-0.4-0.7-0.5-1.2l-0.4-0.9c-0.3-0.7-0.4-1.2-0.4-1.7c0-1.3,0.7-2.5,1.8-3.3
				c0.8-0.5,1.6-0.8,2.5-0.8c0.7,0,1.2-0.1,1.7-0.1h0.9c0.3,0,0.5,0,0.9,0c0.3,0,2.1,0.1,2.1,0.1h0.4l0.4,0.1
				c1.7,0.7,3.5,1.3,5.6,2.1c2.2,0.8,4.4,1.8,6.6,2.9c2.3,1,4.6,2.3,6.8,3.6c2.3,1.4,4.4,3,6.3,4.8c1.8,1.8,3.4,3.9,4.6,6.1
				c1.2,2.3,1.8,4.9,1.8,7.8c0,2.5-0.5,4.7-1.4,6.8c-0.9,2-2.2,3.6-3.8,5.1c-1.4,1.4-3.3,2.6-5.2,3.5c-1.8,0.9-3.8,1.7-5.7,2.2
				c-2,0.5-3.9,0.9-5.9,1.2C201.7,172.2,199.9,172.3,198.2,172.3z M198.7,164.2c0.7,0,1,0,1.3,0c2.1,0,4.2-0.3,6.1-0.8
				c2-0.5,3.6-1.3,5.2-2.2c1.4-0.9,2.6-2.2,3.5-3.8c0.9-1.4,1.3-3.3,1.3-5.3c0-1.6-0.4-3-1-4.4c-0.8-1.6-1.8-3-3.1-4.2
				c-1.3-1.3-2.9-2.6-4.6-3.6c-1.7-1.2-3.6-2.1-5.5-2.9c-1.8-0.8-3.8-1.4-5.6-1.8c-0.8-0.1-1.6-0.3-2.3-0.4v0.4c0,0.8,0.1,2,0.1,3.5
				c0.1,1.7,0.1,3.5,0.3,5.6c0.1,2.1,0.1,4.2,0.3,6.5c0.1,2.2,0.3,4.4,0.4,6.5c0.1,2.1,0.1,3.9,0.3,5.6c0,0.5,0,0.9,0,1.3
				L198.7,164.2z"/>
		</g>
		<g>
			<path fill="#2B2B2B" d="M255.1,172.2v-2.6c0-6.5-0.3-13.3-0.7-20.1c-0.4-6.6-1.4-13.2-3-19.5l-0.3-1.2l0.7-0.9
				c1-1.4,2.3-2.6,3.9-3.6c1.4-0.9,3.1-1.7,4.9-2.3c1.7-0.7,3.6-1,5.6-1.4c2-0.3,3.8-0.5,5.7-0.7c1.8-0.1,3.6-0.3,5.3-0.3
				c1.7,0,3.3-0.1,4.6-0.1c0.1,0,0.4,0,0.9,0c0.4,0,0.7,0,1,0.1c0.4,0,0.7,0,0.9,0h2.9l0.4,2.1c0.4,2,0,3.5-1,4.6
				c-0.8,0.8-2,1.3-3.1,1.4c-0.4,0-0.7,0-1,0c-0.5,0-1.2,0-1.8-0.1c-0.3,0-0.4,0-0.7-0.1h-0.1H280c-0.3,0-0.9,0.1-2.1,0.4l-3.5,0.8
				c-1.3,0.3-2.6,0.5-4.2,0.9c-1.4,0.3-2.9,0.7-4.2,0.9c-1.3,0.3-2.5,0.5-3.5,0.8c-0.8,0.1-1.3,0.3-1.8,0.4c0,0.1,0,0.1,0,0.3
				c0,0.9,0,2.1,0.1,3.3c0.1,1.3,0.3,2.5,0.4,3.8s0.4,2.3,0.5,3.4c0,0.1,0,0.1,0,0.3c0.9,0,2-0.1,2.9-0.3c1-0.1,2.1-0.4,3.1-0.7
				c1.2-0.3,2.3-0.5,3.5-0.7c1.3-0.1,2.6-0.3,3.9-0.3h2.6v7.9h-2.6c-0.3,0-0.9,0-1.8,0.1c-0.8,0.1-1.7,0.1-2.7,0.4
				c-1,0.3-2.1,0.4-3.3,0.7c-1,0.3-2,0.4-2.9,0.7c-0.4,0.1-0.8,0.3-1.2,0.4v11.5c1.4,0,2.9-0.1,4.2-0.1c2.3-0.1,4.6-0.3,6.9-0.5
				c2.3-0.1,4.7-0.4,7-0.5s4.8-0.3,7.2-0.3h2.6v2.6c0,1.3-0.5,2.5-1.4,3.4c-0.7,0.5-1.3,1-2.1,1.4c-0.7,0.3-1.4,0.5-2.2,0.7
				l-1.3,0.3c-0.3,0-0.8,0.1-2.1,0.3c-1,0.1-2.3,0.3-3.8,0.4c-1.6,0.3-3.3,0.4-5.2,0.7c0,0-9.1,1-10.8,1.2c-1.6,0.1-2.9,0.3-3.9,0.4
				c-0.4,0.1-0.7,0.1-1.2,0.1L255.1,172.2L255.1,172.2z"/>
		</g>
		<g>
			<path fill="#2B2B2B" d="M352,171.7c-0.3,0-0.5,0-0.7,0c-0.7-0.1-1.3-0.4-1.8-0.8c-0.8-0.5-1.2-1.4-1.4-2.3l-4.3-30.5l-5.7,14.1
				h-6.3l-3-5.9v24.1l-8.3,1.2l-0.1-2.9c-0.1-1.7-0.1-3.9-0.3-6.6c-0.1-2.6-0.1-5.5-0.3-8.6c-0.1-3.1-0.1-6.3-0.1-9.5l-0.1-9.2
				c0-3-0.1-5.7-0.1-8.2c-0.1-2.3-0.1-4.4-0.3-6l-0.1-2.7h2.7c0.3,0,0.4,0,0.7,0c0.4,0,0.7-0.1,1-0.1c0.1,0,0.3,0,0.4,0
				c0.7,0,1.2,0.1,1.7,0.4c0.8,0.4,1.4,1,1.8,2l7.6,16.9l6.3-15.8c0.3-0.8,0.8-1.4,1.6-1.8c0.4-0.3,0.8-0.5,1.2-0.7
				c0.5-0.3,1-0.4,1.6-0.5c0.5-0.1,1-0.1,1.4-0.1c1.3,0,2.7,1,2.7,2.9c0,0.1,0,0.5,0.1,1.3c0.1,0.9,0.3,2.3,0.5,4.2
				c0.3,2,0.7,4.7,1,8.1c0.5,3.5,1.2,7.9,2,13.3c0.8,5.3,1.7,12,3,19.9l0.1,0.8l-0.3,0.7c-0.5,1.3-1.4,2-2.1,2.2
				C353.2,171.5,352.6,171.7,352,171.7z"/>
		</g>
		<g>
			<path fill="#2B2B2B" d="M407.5,170.6l-2.9-16.1c-0.1,0-0.3,0-0.4,0c-0.5,0-1.2,0-2,0.1c-1.2,0.1-2.3,0.3-3.6,0.4
				c-1.4,0.1-2.7,0.3-4,0.4c-0.9,0-1.8,0.1-2.7,0.1c-0.1,0-0.3,0-0.3,0v15.2h-9v-2.6c0-0.1,0-0.5,0-1c0-0.4,0-0.8,0-1.2
				c0-0.5,0-1,0.1-1.6c0-0.3,0-0.4,0-0.5v-0.3c0.3-2.9,0.5-5.7,0.7-8.6c0.1-3,0.4-5.9,0.7-8.7c0.3-2.9,0.7-5.6,1-8.2
				c0.4-2.7,1.2-5.2,2-7.4c0.9-2.3,2.1-4.3,3.4-6c1.4-1.8,3.4-3.1,5.6-4l0.4-0.1h0.5c2.5,0,4.6,0.8,6.4,2.2c1.7,1.3,3,3,4.3,5.1
				c1.2,2,2.1,4.2,2.9,6.8c0.8,2.5,1.3,4.9,1.8,7.7c0.4,2.6,0.8,5.3,1,7.9c0.3,2.6,0.4,5.2,0.5,7.4c0.1,2.3,0.1,4.4,0.1,6.3
				c0,1.8,0,3.3,0,4.3v2.6h-6.5V170.6z M397.4,129.2c-0.3,0.1-0.5,0.3-0.7,0.5c-0.7,0.7-1.2,1.6-1.6,2.7c-0.5,1.3-0.9,2.7-1.2,4.4
				c-0.3,1.7-0.5,3.4-0.5,4.9c-0.1,1.7-0.1,3.3-0.1,4.7c0,0.3,0,0.4,0,0.7c1.4-0.1,3-0.3,4.4-0.4c1.7-0.3,3.5-0.5,5.1-0.8l0.1-2
				c0-0.4,0-0.7,0-0.8c0-1.6-0.1-3-0.3-4.4c-0.1-1.3-0.4-2.6-0.9-3.8c-0.4-1.2-1-2.2-1.8-3.3C399.4,130.8,398.5,130,397.4,129.2z"/>
		</g>
		<g>
			<path fill="#2B2B2B" d="M449.8,133.9c0,2,0.1,3.8,0.1,5.7c0.1,3.3,0.3,6.4,0.5,9.6c0.3,3.3,0.4,6.5,0.5,9.9
				c0.1,3.3,0.3,6.6,0.3,9.9v2.7l-7.8-0.4l-0.1-2.3c0-0.9-0.1-2.2-0.3-3.9c-0.1-1.7-0.3-3.6-0.4-5.9l-0.5-7.2
				c-0.3-2.5-0.4-5.1-0.7-7.7c-0.3-2.6-0.4-5.2-0.5-7.8l-0.4-7c-0.1-2.2-0.3-4.2-0.3-5.9s0-3,0-4c0-1.3,0.5-2.5,1.6-3.4
				c0.9-0.8,2.1-1.3,3.3-1.3c0.9,0,1.8,0.1,2.9,0.5c1.4,0.5,2.3,1.3,3,2.2l21.6,34.9c-0.1-2-0.1-3.8-0.3-5.7
				c-0.1-2.9-0.1-5.6-0.1-8.5s0-5.6,0.1-8.3s0.4-5.3,0.8-7.8c0.4-2.6,1-4.8,1.7-6.9l0.4-1.2l1.2-0.4c0.9-0.4,1.7-0.5,2.3-0.5
				c0.1,0,0.4,0,0.5,0c0.4,0,0.8,0,1.2,0.1c1.3,0.3,2.1,1.3,2.3,2.6c0,0.3,0,0.7,0,0.9v1.3l-0.1,0.4c0,0-0.1,0.3-0.3,1.2
				c-0.1,0.8-0.3,2-0.5,3.5c-0.1,1.4-0.4,3.5-0.5,5.9c-0.1,2.5-0.3,5.6-0.4,9.2s-0.3,8.1-0.4,13c-0.1,5.1-0.1,11.1,0,17.7v2.5
				l-6.1,0.4L449.8,133.9z"/>
		</g>
		<g>
			<path fill="#2B2B2B" d="M523.9,172.3c-0.4,0-1,0-1.8,0c-0.9,0-1.8,0-2.7-0.1c-0.9,0-1.7-0.1-2.3-0.1h-1h-2.5l-0.1-2.5l-0.1-2.7
				l-2.7-33.6c0,0,0-0.1-0.1-0.1c-0.1-0.3-0.4-0.7-0.5-1.2l-0.4-0.9c-0.3-0.7-0.4-1.2-0.4-1.7c0-1.3,0.7-2.5,1.8-3.3
				c0.8-0.5,1.6-0.8,2.5-0.8c0.7,0,1.2-0.1,1.7-0.1h0.9c0.3,0,0.5,0,0.9,0c0.3,0,2.1,0.1,2.1,0.1h0.4l0.4,0.1
				c1.7,0.7,3.5,1.3,5.6,2.1c2.2,0.8,4.4,1.8,6.6,2.9c2.3,1,4.6,2.3,6.8,3.6c2.3,1.4,4.4,3,6.3,4.8c1.8,1.8,3.4,3.9,4.6,6.1
				c1.2,2.3,1.8,4.9,1.8,7.8c0,2.5-0.5,4.7-1.4,6.8c-0.9,2-2.2,3.6-3.8,5.1c-1.4,1.4-3.3,2.6-5.2,3.5c-1.8,0.9-3.8,1.7-5.7,2.2
				s-3.9,0.9-5.9,1.2C527.4,172.2,525.6,172.3,523.9,172.3z M524.5,164.2c0.7,0,1,0,1.3,0c2.1,0,4.2-0.3,6.1-0.8
				c2-0.5,3.6-1.3,5.2-2.2c1.4-0.9,2.6-2.2,3.5-3.8c0.9-1.4,1.3-3.3,1.3-5.3c0-1.6-0.4-3-1-4.4c-0.8-1.6-1.8-3-3.1-4.2
				c-1.3-1.3-2.9-2.6-4.6-3.6c-1.7-1.2-3.6-2.1-5.5-2.9c-1.8-0.8-3.8-1.4-5.6-1.8c-0.8-0.1-1.6-0.3-2.3-0.4v0.4c0,0.8,0.1,2,0.1,3.5
				c0.1,1.7,0.1,3.5,0.3,5.6c0.1,2.1,0.1,4.2,0.3,6.5c0.1,2.2,0.3,4.4,0.4,6.5s0.1,3.9,0.3,5.6c0,0.5,0,0.9,0,1.3L524.5,164.2z"/>
		</g>
	</g>
</g>
<path fill="#2B2B2B" d="M552,215.5c-56.6,1.6-115.6,1.6-172.8-0.3c-6.1-0.3-12.1-0.5-18.2-0.8s-12.1-0.7-18.2-1
	c-5.5,0-10.9,0-16.4,0.1c-27.3,0.3-54.6,1.3-82,2.6c-6.3,0-12.6,0.1-18.9,0c-56-4.2-109.8-7.7-165.9-2.1c-6.3,0.1-12.5,0.3-18.8,0.5
	S28.3,215,22,215.3c0-3.5,0-10.4,0-10.4c6.3-0.5,12.5-0.9,18.6-1.3c6.3-0.4,12.4-0.5,18.6-0.8c59.8-8.3,122.3,0.3,183.2,1.6
	c4.7-0.1,9.5-0.3,14.2-0.4c23.7-0.7,47.5-1.6,71.2-2c5.7-0.1,11.5-0.1,17.2-0.3c11.3,0.7,22.7,1.2,34,1.8c5.7,0.3,11.3,0.5,17.1,0.8
	c52.3,3.8,104.3,2.1,155.7-0.4C551.9,204.3,552,215.5,552,215.5z"/>
</svg>
