<?xml version="1.0" encoding="utf-8"?>
<!-- Generator: Adobe Illustrator 17.1.0, SVG Export Plug-In . SVG Version: 6.00 Build 0)  -->
<!DOCTYPE svg PUBLIC "-//W3C//DTD SVG 1.1//EN" "http://www.w3.org/Graphics/SVG/1.1/DTD/svg11.dtd">
<svg version="1.1" id="Calque_1" xmlns="http://www.w3.org/2000/svg" xmlns:xlink="http://www.w3.org/1999/xlink" x="0px" y="0px"
	 viewBox="0 0 136 136" enable-background="new 0 0 136 136" xml:space="preserve">
<path fill="#2B2B2B" d="M111.9,80.6c-1.8,0-3.2,1.5-3.2,3.2c0,1.8,1.5,3.2,3.2,3.2c1.8,0,3.2-1.5,3.2-3.2
	C115.1,82.1,113.7,80.6,111.9,80.6z M111.9,85.6c-1,0-1.7-0.8-1.7-1.7s0.8-1.7,1.7-1.7c1,0,1.7,0.8,1.7,1.7S112.9,85.6,111.9,85.6z"
	/>
<circle fill="#2B2B2B" cx="112" cy="83.9" r="0.3"/>
<path fill="#2B2B2B" d="M130.6,80.6c-1.8,0-3.2,1.5-3.2,3.2c0,1.8,1.5,3.2,3.2,3.2c1.8,0,3.2-1.5,3.2-3.2
	C133.8,82.1,132.4,80.6,130.6,80.6z M130.6,85.6c-1,0-1.7-0.8-1.7-1.7s0.8-1.7,1.7-1.7c1,0,1.7,0.8,1.7,1.7S131.5,85.6,130.6,85.6z"
	/>
<circle fill="#2B2B2B" cx="130.7" cy="83.9" r="0.3"/>
<path fill="#2B2B2B" d="M108,83.9c0-2.1,1.7-3.9,3.9-3.9c2.1,0,3.9,1.7,3.9,3.9h10.9c0-2.1,1.7-3.9,3.9-3.9s3.9,1.7,3.9,3.9l4-0.1
	c0,0,0.6-0.2,0.6-1.4c0-1.2-0.8-1.2-0.8-1.2l-1.9,0c0,0-0.1-1.2-1.8-2.9c-1.7-1.7-3.8-1.5-3.8-1.5l-26.6,0.1v5.3h0.1
	c0,0-0.5-0.2-0.5,0.8c0,1.1,0.5,0.9,0.5,0.9L108,83.9z"/>
<path fill="#2B2B2B" d="M138.5,75.7h-0.3l-0.2-1.8c0,0-1.1-3.6-3.6-6.2c-0.1-0.1,0.5,0,0.5,0c-2.6-2.6-10.2-2.1-13.4-2.2
	c-3.3-0.1-15.5,0.7-16.7,1.8c-0.5,0.5-0.5,1.2-0.5,1.2v7.4h27.2c0,0,1.5-0.2,3.7,1.5c1.6,1.3,2,3.3,2,3.3h1l0-2.9l0.4,0
	C139,77.1,138.8,76,138.5,75.7z M113.2,74c0,0.2-0.1,0.3-0.3,0.3h-5.4c-0.2,0-0.3-0.1-0.3-0.3v-5.3c0-0.2,0.1-0.3,0.3-0.3h5.4
	c0.2,0,0.3,0.1,0.3,0.3V74z M120.6,74c0,0.2-0.1,0.3-0.3,0.3h-5.4c-0.2,0-0.3-0.1-0.3-0.3v-5.3c0-0.2,0.1-0.3,0.3-0.3h5.4
	c0.2,0,0.3,0.1,0.3,0.3V74z M127.9,74c0,0.2-0.1,0.3-0.3,0.3h-5.4c-0.2,0-0.3-0.1-0.3-0.3v-5.3c0-0.2,0.1-0.3,0.3-0.3h5.4
	c0.2,0,0.3,0.1,0.3,0.3V74z M135.9,74.3h-6.6c-0.3,0-0.5-0.2-0.5-0.5v-4.9c0-0.3,0.2-0.5,0.5-0.5h3.1c1.9,0,4,3.7,4,4.7
	C136.5,74,136.2,74.3,135.9,74.3z"/>
<g>
	<g>
		<g>
			<path fill="#2B2B2B" d="M16,76.1c-0.4,0-0.8-0.1-1.1-0.2c-0.3-0.2-0.6-0.4-0.8-0.6c-0.2-0.2-0.4-0.5-0.5-0.9
				c-0.1-0.3-0.2-0.6-0.3-1c0-0.3-0.1-0.7-0.1-1c0-0.3,0-0.6,0-0.9s0-0.6,0.1-0.9c0-0.3,0.1-0.7,0.2-1c0.1-0.3,0.2-0.6,0.4-0.9
				c0.2-0.3,0.3-0.6,0.6-0.8c0.2-0.2,0.5-0.4,0.8-0.6c0.3-0.2,0.7-0.2,1.1-0.2s0.7,0.1,1,0.3c0.2,0.2,0.5,0.5,0.7,0.7
				c0.2,0.3,0.3,0.6,0.5,1c0.1,0.3,0.2,0.7,0.3,1c0.1,0.3,0.1,0.7,0.2,1c0,0.3,0,0.6,0,0.8v0c0,0.5-0.1,1-0.2,1.4
				c-0.1,0.5-0.3,0.8-0.5,1.2c-0.2,0.4-0.5,0.7-0.8,0.9c-0.3,0.2-0.7,0.4-1.2,0.5L16,76.1L16,76.1L16,76.1z M16.2,68.4
				c-0.2,0-0.3,0-0.5,0.1c-0.2,0.1-0.3,0.2-0.4,0.4c-0.1,0.2-0.2,0.4-0.4,0.6c-0.1,0.2-0.2,0.5-0.2,0.7c-0.1,0.2-0.1,0.5-0.2,0.7
				c0,0.2,0,0.4,0,0.6c0,0.2,0,0.4,0,0.7c0,0.2,0,0.5,0.1,0.7c0,0.2,0.1,0.5,0.2,0.7c0.1,0.2,0.2,0.4,0.2,0.5
				c0.1,0.1,0.2,0.2,0.3,0.3c0.1,0.1,0.3,0.1,0.5,0.1h0c0.1,0,0.1,0,0.2,0c0.2,0,0.5,0,0.6-0.1c0.2-0.1,0.3-0.2,0.4-0.4
				c0.1-0.2,0.2-0.5,0.3-0.8c0.1-0.3,0.1-0.7,0.2-1.2c0-0.2,0-0.4,0-0.6c0-0.2,0-0.5-0.1-0.8c0-0.3-0.1-0.6-0.2-0.8
				c-0.1-0.2-0.2-0.5-0.3-0.7c-0.1-0.2-0.2-0.3-0.3-0.5C16.4,68.5,16.3,68.4,16.2,68.4z"/>
		</g>
		<g>
			<path fill="#2B2B2B" d="M24.8,69.7c0,0.3,0,0.6,0,1c0,0.5,0,1.1,0.1,1.6c0,0.5,0.1,1.1,0.1,1.6c0,0.5,0,1.1,0,1.6V76l-1.3-0.1
				l0-0.4c0-0.2,0-0.4,0-0.7c0-0.3,0-0.6-0.1-1l-0.1-1.2c0-0.4-0.1-0.8-0.1-1.3c0-0.4-0.1-0.9-0.1-1.3L23.2,69c0-0.4,0-0.7,0-1
				c0-0.3,0-0.5,0-0.7c0-0.2,0.1-0.4,0.2-0.6c0.2-0.1,0.3-0.2,0.5-0.2c0.2,0,0.3,0,0.5,0.1c0.2,0.1,0.4,0.2,0.5,0.4l3.6,5.8
				c0-0.3,0-0.6,0-1c0-0.5,0-0.9,0-1.4c0-0.5,0-0.9,0-1.4c0-0.5,0.1-0.9,0.1-1.3s0.2-0.8,0.3-1.1l0.1-0.2l0.2-0.1
				c0.2-0.1,0.3-0.1,0.4-0.1c0,0,0.1,0,0.1,0c0.1,0,0.1,0,0.2,0c0.2,0,0.3,0.2,0.4,0.4c0,0,0,0.1,0,0.2v0.2l0,0.1c0,0,0,0,0,0.2
				c0,0.1,0,0.3-0.1,0.6c0,0.2-0.1,0.6-0.1,1c0,0.4,0,0.9-0.1,1.5c0,0.6,0,1.3-0.1,2.2c0,0.8,0,1.8,0,2.9V76l-1,0.1L24.8,69.7z"/>
		</g>
		<g>
			<path fill="#2B2B2B" d="M41.9,76.1c-0.1,0-0.2,0-0.3,0c-0.2,0-0.3,0-0.5,0c-0.2,0-0.3,0-0.4,0h-0.2h-0.4l0-0.4l0-0.5l-0.5-5.6
				c0,0,0,0,0,0c0,0-0.1-0.1-0.1-0.2l-0.1-0.2c0-0.1-0.1-0.2-0.1-0.3c0-0.2,0.1-0.4,0.3-0.5c0.1-0.1,0.2-0.1,0.4-0.1
				c0.1,0,0.2,0,0.3,0h0.2c0,0,0.1,0,0.2,0c0,0,0.3,0,0.3,0h0.1l0.1,0c0.3,0.1,0.6,0.2,0.9,0.3c0.4,0.1,0.7,0.3,1.1,0.5
				c0.4,0.2,0.7,0.4,1.1,0.6c0.4,0.2,0.7,0.5,1,0.8s0.6,0.7,0.7,1c0.2,0.4,0.3,0.8,0.3,1.3c0,0.4-0.1,0.8-0.2,1.1
				c-0.2,0.3-0.4,0.6-0.6,0.8c-0.2,0.2-0.5,0.4-0.9,0.6c-0.3,0.2-0.6,0.3-1,0.4c-0.3,0.1-0.7,0.2-1,0.2
				C42.4,76.1,42.1,76.1,41.9,76.1z M41.9,74.7c0.1,0,0.2,0,0.2,0c0.3,0,0.7,0,1-0.1c0.3-0.1,0.6-0.2,0.9-0.4
				c0.2-0.2,0.4-0.4,0.6-0.6c0.2-0.2,0.2-0.5,0.2-0.9c0-0.2-0.1-0.5-0.2-0.7c-0.1-0.2-0.3-0.5-0.5-0.7c-0.2-0.2-0.5-0.4-0.7-0.6
				c-0.3-0.2-0.6-0.3-0.9-0.5s-0.6-0.2-0.9-0.3c-0.1,0-0.2,0-0.4-0.1v0.1c0,0.1,0,0.3,0,0.6c0,0.3,0,0.6,0,0.9c0,0.3,0,0.7,0,1.1
				c0,0.4,0,0.7,0.1,1.1c0,0.3,0,0.7,0,0.9c0,0.1,0,0.2,0,0.2L41.9,74.7z"/>
		</g>
		<g>
			<path fill="#2B2B2B" d="M51.3,76.1v-0.4c0-1.1,0-2.2-0.1-3.3c-0.1-1.1-0.2-2.2-0.5-3.2l0-0.2l0.1-0.2c0.2-0.2,0.4-0.4,0.7-0.6
				c0.2-0.2,0.5-0.3,0.8-0.4c0.3-0.1,0.6-0.2,0.9-0.2c0.3,0,0.6-0.1,1-0.1c0.3,0,0.6,0,0.9,0s0.5,0,0.7,0c0,0,0.1,0,0.2,0
				c0.1,0,0.1,0,0.2,0c0.1,0,0.1,0,0.2,0h0.5l0.1,0.3c0.1,0.3,0,0.6-0.2,0.7c-0.1,0.1-0.3,0.2-0.5,0.2c-0.1,0-0.1,0-0.2,0
				c-0.1,0-0.2,0-0.3,0c0,0-0.1,0-0.1,0h0h0c0,0-0.2,0-0.3,0.1l-0.6,0.1c-0.2,0-0.4,0.1-0.7,0.2c-0.2,0-0.5,0.1-0.7,0.2
				c-0.2,0-0.4,0.1-0.6,0.1c-0.1,0-0.2,0-0.3,0.1c0,0,0,0,0,0c0,0.2,0,0.3,0,0.5c0,0.2,0,0.4,0.1,0.6c0,0.2,0.1,0.4,0.1,0.6
				c0,0,0,0,0,0c0.2,0,0.3,0,0.5,0c0.2,0,0.3-0.1,0.5-0.1c0.2,0,0.4-0.1,0.6-0.1c0.2,0,0.4,0,0.7,0h0.4v1.3h-0.4c0,0-0.2,0-0.3,0
				s-0.3,0-0.5,0.1c-0.2,0-0.3,0.1-0.5,0.1c-0.2,0-0.3,0.1-0.5,0.1c-0.1,0-0.1,0-0.2,0.1v1.9c0.2,0,0.5,0,0.7,0c0.4,0,0.7,0,1.1-0.1
				c0.4,0,0.8-0.1,1.2-0.1c0.4,0,0.8,0,1.2,0h0.4v0.4c0,0.2-0.1,0.4-0.2,0.6c-0.1,0.1-0.2,0.2-0.3,0.2c-0.1,0-0.2,0.1-0.4,0.1
				l-0.2,0c0,0-0.1,0-0.3,0c-0.2,0-0.4,0-0.6,0.1c-0.2,0-0.5,0.1-0.9,0.1c0,0-1.5,0.2-1.8,0.2c-0.2,0-0.5,0-0.7,0.1
				c-0.1,0-0.1,0-0.2,0L51.3,76.1L51.3,76.1z"/>
		</g>
		<g>
			<path fill="#2B2B2B" d="M67.3,76c0,0-0.1,0-0.1,0c-0.1,0-0.2-0.1-0.3-0.1c-0.1-0.1-0.2-0.2-0.2-0.4L66,70.4l-1,2.3h-1l-0.5-1v4
				L62.1,76l0-0.5c0-0.3,0-0.7,0-1.1c0-0.4,0-0.9,0-1.4c0-0.5,0-1,0-1.6l0-1.5c0-0.5,0-1,0-1.4c0-0.4,0-0.7,0-1l0-0.5h0.5
				c0,0,0.1,0,0.1,0c0.1,0,0.1,0,0.2,0c0,0,0,0,0.1,0c0.1,0,0.2,0,0.3,0.1c0.1,0.1,0.2,0.2,0.3,0.3l1.2,2.8l1-2.6
				c0-0.1,0.1-0.2,0.2-0.3c0.1,0,0.1-0.1,0.2-0.1c0.1,0,0.2-0.1,0.2-0.1c0.1,0,0.2,0,0.2,0c0.2,0,0.5,0.2,0.5,0.5c0,0,0,0.1,0,0.2
				c0,0.2,0,0.4,0.1,0.7c0,0.3,0.1,0.8,0.2,1.3c0.1,0.6,0.2,1.3,0.3,2.2c0.1,0.9,0.3,2,0.5,3.3l0,0.1l0,0.1
				c-0.1,0.2-0.2,0.3-0.3,0.4C67.5,76,67.4,76,67.3,76z"/>
		</g>
		<g>
			<path fill="#2B2B2B" d="M76.5,75.8l-0.5-2.7c0,0,0,0-0.1,0c-0.1,0-0.2,0-0.3,0c-0.2,0-0.4,0-0.6,0.1c-0.2,0-0.5,0-0.7,0.1
				c-0.2,0-0.3,0-0.5,0c0,0,0,0,0,0v2.5h-1.5v-0.4c0,0,0-0.1,0-0.2c0-0.1,0-0.1,0-0.2c0-0.1,0-0.2,0-0.2c0,0,0-0.1,0-0.1v0
				c0-0.5,0.1-1,0.1-1.4c0-0.5,0.1-1,0.1-1.5c0-0.5,0.1-0.9,0.2-1.4c0.1-0.5,0.2-0.9,0.3-1.2c0.2-0.4,0.3-0.7,0.6-1
				c0.2-0.3,0.6-0.5,0.9-0.7l0.1,0h0.1c0.4,0,0.7,0.1,1.1,0.4c0.3,0.2,0.5,0.5,0.7,0.8c0.2,0.3,0.3,0.7,0.5,1.1
				c0.1,0.4,0.2,0.8,0.3,1.3c0.1,0.4,0.1,0.9,0.2,1.3c0,0.4,0.1,0.9,0.1,1.2c0,0.4,0,0.7,0,1c0,0.3,0,0.5,0,0.7v0.4L76.5,75.8
				L76.5,75.8z M74.9,68.9c0,0-0.1,0-0.1,0.1c-0.1,0.1-0.2,0.2-0.2,0.5c-0.1,0.2-0.2,0.5-0.2,0.7c0,0.3-0.1,0.6-0.1,0.8
				c0,0.3,0,0.5,0,0.8c0,0,0,0.1,0,0.1c0.2,0,0.5,0,0.7-0.1c0.3,0,0.6-0.1,0.8-0.1l0-0.3c0-0.1,0-0.1,0-0.1c0-0.2,0-0.5,0-0.7
				c0-0.2-0.1-0.4-0.2-0.6c-0.1-0.2-0.2-0.4-0.3-0.5C75.2,69.2,75,69.1,74.9,68.9z"/>
		</g>
		<g>
			<path fill="#2B2B2B" d="M83.5,69.7c0,0.3,0,0.6,0,1c0,0.5,0,1.1,0.1,1.6c0,0.5,0.1,1.1,0.1,1.6s0,1.1,0,1.6V76l-1.3-0.1l0-0.4
				c0-0.2,0-0.4,0-0.7c0-0.3,0-0.6-0.1-1l-0.1-1.2c0-0.4-0.1-0.8-0.1-1.3c0-0.4-0.1-0.9-0.1-1.3L82,69c0-0.4,0-0.7,0-1
				c0-0.3,0-0.5,0-0.7c0-0.2,0.1-0.4,0.2-0.6c0.2-0.1,0.3-0.2,0.5-0.2c0.2,0,0.3,0,0.5,0.1c0.2,0.1,0.4,0.2,0.5,0.4l3.6,5.8
				c0-0.3,0-0.6,0-1c0-0.5,0-0.9,0-1.4c0-0.5,0-0.9,0-1.4c0-0.5,0.1-0.9,0.1-1.3c0.1-0.4,0.2-0.8,0.3-1.1l0.1-0.2l0.2-0.1
				c0.2-0.1,0.3-0.1,0.4-0.1c0,0,0.1,0,0.1,0c0.1,0,0.1,0,0.2,0c0.2,0,0.3,0.2,0.4,0.4c0,0,0,0.1,0,0.2v0.2l0,0.1c0,0,0,0,0,0.2
				c0,0.1,0,0.3-0.1,0.6c0,0.2-0.1,0.6-0.1,1c0,0.4,0,0.9-0.1,1.5c0,0.6,0,1.3-0.1,2.2c0,0.8,0,1.8,0,2.9V76l-1,0.1L83.5,69.7z"/>
		</g>
		<g>
			<path fill="#2B2B2B" d="M95.8,76.1c-0.1,0-0.2,0-0.3,0c-0.2,0-0.3,0-0.5,0c-0.2,0-0.3,0-0.4,0h-0.2h-0.4l0-0.4l0-0.5l-0.5-5.6
				c0,0,0,0,0,0c0,0-0.1-0.1-0.1-0.2l-0.1-0.2c0-0.1-0.1-0.2-0.1-0.3c0-0.2,0.1-0.4,0.3-0.5c0.1-0.1,0.2-0.1,0.4-0.1
				c0.1,0,0.2,0,0.3,0h0.2c0,0,0.1,0,0.2,0c0,0,0.3,0,0.3,0H95l0.1,0c0.3,0.1,0.6,0.2,0.9,0.3c0.4,0.1,0.7,0.3,1.1,0.5
				s0.7,0.4,1.1,0.6c0.4,0.2,0.7,0.5,1,0.8c0.3,0.3,0.6,0.7,0.7,1c0.2,0.4,0.3,0.8,0.3,1.3c0,0.4-0.1,0.8-0.2,1.1
				c-0.2,0.3-0.4,0.6-0.6,0.8c-0.2,0.2-0.5,0.4-0.9,0.6c-0.3,0.2-0.6,0.3-1,0.4c-0.3,0.1-0.7,0.2-1,0.2
				C96.4,76.1,96.1,76.1,95.8,76.1z M95.9,74.7c0.1,0,0.2,0,0.2,0c0.3,0,0.7,0,1-0.1c0.3-0.1,0.6-0.2,0.9-0.4
				c0.2-0.2,0.4-0.4,0.6-0.6c0.2-0.2,0.2-0.5,0.2-0.9c0-0.2-0.1-0.5-0.2-0.7c-0.1-0.2-0.3-0.5-0.5-0.7c-0.2-0.2-0.5-0.4-0.7-0.6
				c-0.3-0.2-0.6-0.3-0.9-0.5s-0.6-0.2-0.9-0.3c-0.1,0-0.2,0-0.4-0.1v0.1c0,0.1,0,0.3,0,0.6c0,0.3,0,0.6,0,0.9c0,0.3,0,0.7,0,1.1
				c0,0.4,0,0.7,0.1,1.1c0,0.3,0,0.7,0,0.9c0,0.1,0,0.2,0,0.2L95.9,74.7z"/>
		</g>
	</g>
</g>
<path fill="#2B2B2B" d="M100.5,83.3c-9.4,0.2-19.2,0.2-28.7,0c-1,0-2-0.1-3-0.1c-1,0-2-0.1-3-0.2c-0.9,0-1.8,0-2.7,0
	c-4.5,0-9,0.2-13.6,0.4c-1,0-2.1,0-3.1,0c-9.3-0.7-18.2-1.3-27.5-0.3c-1,0-2.1,0-3.1,0.1s-2.1,0.1-3.1,0.1c0-0.6,0-1.7,0-1.7
	c1-0.1,2.1-0.2,3.1-0.2c1-0.1,2-0.1,3.1-0.1c9.9-1.4,20.3,0,30.4,0.2c0.8,0,1.6,0,2.4-0.1c3.9-0.1,7.9-0.2,11.8-0.3c1,0,1.9,0,2.9,0
	c1.9,0.1,3.8,0.2,5.6,0.3c1,0,1.9,0.1,2.8,0.1c8.7,0.6,17.3,0.3,25.8-0.1C100.5,81.4,100.5,83.3,100.5,83.3z"/>
</svg>
