<?xml version="1.0" encoding="utf-8"?>
<!-- Generator: Adobe Illustrator 17.0.0, SVG Export Plug-In . SVG Version: 6.00 Build 0)  -->
<!DOCTYPE svg PUBLIC "-//W3C//DTD SVG 1.1//EN" "http://www.w3.org/Graphics/SVG/1.1/DTD/svg11.dtd">
<svg version="1.1" id="Calque_1" xmlns="http://www.w3.org/2000/svg" xmlns:xlink="http://www.w3.org/1999/xlink" x="0px" y="0px"
	 width="612px" height="792px" viewBox="0 0 612 792" enable-background="new 0 0 612 792" xml:space="preserve">
<g>
	<path fill="#D23333" d="M170.014,460.26c-25.582,0-46.267,20.686-46.267,46.267c0,25.582,20.686,46.267,46.267,46.267
		s46.267-20.686,46.267-46.267C216.281,480.946,195.595,460.26,170.014,460.26z M170.014,531.374
		c-13.831,0-25.214-11.383-25.214-25.214s11.383-25.214,25.214-25.214c13.831,0,25.214,11.383,25.214,25.214
		C195.228,520.358,184.212,531.374,170.014,531.374z"/>
	<path fill="#D23333" d="M438.314,460.26c-25.582,0-46.267,20.686-46.267,46.267c0,25.582,20.686,46.267,46.267,46.267
		c25.582,0,46.267-20.686,46.267-46.267C484.582,480.946,463.896,460.26,438.314,460.26z M438.314,531.374
		c-13.831,0-25.214-11.383-25.214-25.214s11.383-25.214,25.214-25.214c13.831,0,25.214,11.383,25.214,25.214
		C463.529,520.358,452.146,531.374,438.314,531.374z"/>
	<path fill="#D23333" d="M114.444,506.527c0-30.845,24.725-55.57,55.57-55.57s55.57,24.725,55.57,55.57h157.162
		c0-30.845,24.725-55.57,55.57-55.57s55.57,24.725,55.57,55.57l57.65-1.224c0,0,8.568-2.815,8.568-19.462
		c0-16.646-11.383-18.238-11.383-18.238l-26.806-0.367c0,0-0.857-17.014-25.582-41.861c-24.358-25.214-53.611-21.053-53.611-21.053
		l-382.01,1.591v75.521h0.857c0,0-6.487-3.305-6.854,12.118C54.346,508.608,61.2,506.16,61.2,506.16L114.444,506.527z"/>
	<rect x="228.031" y="477.763" fill="#D23333" width="155.448" height="3.305"/>
	<rect x="66.096" y="477.763" fill="#D23333" width="49.572" height="3.305"/>
	<path fill="#D23333" d="M552.024,390.125h-4.896l-2.081-26.438c0,0-16.279-51.53-52.02-88.495c-0.857-0.857,8.078,0,7.344-0.857
		c-37.332-37.332-145.778-30.478-192.78-32.069c-47.002-1.591-222.523,10.526-239.904,26.438
		c-7.711,6.854-6.487,17.014-6.487,17.014v105.998h390.578c0,0,21.91-3.305,52.754,21.542
		c23.134,18.727,28.764,47.124,28.764,47.124h13.831l-0.367-41.861l6.12,0.367C558.878,409.586,556.43,393.307,552.024,390.125z
		 M189.108,364.91c0,2.081-1.591,3.672-3.672,3.672h-77.479c-2.081,0-3.672-1.591-3.672-3.672v-76.745
		c0-2.081,1.591-3.672,3.672-3.672h77.479c2.081,0,3.672,1.591,3.672,3.672V364.91z M294.617,364.91
		c0,2.081-1.591,3.672-3.672,3.672h-77.479c-2.081,0-3.672-1.591-3.672-3.672v-76.745c0-2.081,1.591-3.672,3.672-3.672h77.479
		c2.081,0,3.672,1.591,3.672,3.672V364.91z M400.126,364.91c0,2.081-1.591,3.672-3.672,3.672h-77.479
		c-2.081,0-3.672-1.591-3.672-3.672v-76.745c0-2.081,1.591-3.672,3.672-3.672h77.602c2.081,0,3.672,1.591,3.672,3.672v76.745
		H400.126z M515.426,368.95h-95.35c-4.039,0-7.344-3.305-7.344-7.344v-70.258c0-4.039,3.305-7.344,7.344-7.344h44.676
		c27.173,0,57.65,53.611,57.65,67.442C522.403,364.91,519.098,368.95,515.426,368.95z"/>
</g>
</svg>
