<?xml version="1.0" encoding="utf-8"?>
<!-- Generator: Adobe Illustrator 17.0.0, SVG Export Plug-In . SVG Version: 6.00 Build 0)  -->
<!DOCTYPE svg PUBLIC "-//W3C//DTD SVG 1.1//EN" "http://www.w3.org/Graphics/SVG/1.1/DTD/svg11.dtd">
<svg version="1.1" id="Calque_1" xmlns="http://www.w3.org/2000/svg" xmlns:xlink="http://www.w3.org/1999/xlink" x="0px" y="0px"
	 width="612px" height="792px" viewBox="0 0 612 792" enable-background="new 0 0 612 792" xml:space="preserve">
<g>
	<path fill="#D23333" d="M60.958,300.971v9.647c-10.714,8.21-19.704,12.274-26.887,12.274c-3.12,0-5.501-0.78-7.06-2.34
		c-2.873-2.997-4.31-7.43-4.31-13.587c0-4.844,0.903-10.96,2.627-18.513c1.437-6.28,2.997-11.617,4.68-16.296
		c2.75-7.43,4.844-12.274,5.87-14.49c1.683-3.53,3.9-6.65,6.28-9.277c2.627-2.627,5.213-3.9,8.21-3.9
		c2.217,0,4.064,1.026,5.501,2.997c1.437,1.97,2.217,4.31,2.217,7.184c0,6.116-2.75,13.423-8.087,22.331
		c-3.777,6.116-9.523,13.834-17.487,23.357c-0.123,1.314-0.41,3.653-0.534,6.896c-0.123,5.501,1.683,8.087,5.336,8.087
		c2.997,0,6.65-1.314,10.96-4.064C52.994,308.401,57.14,305.035,60.958,300.971z M34.317,288.985
		c6.116-8.743,10.18-14.737,12.274-18.267c3.243-5.747,4.844-10.55,4.844-14.49c0-2.627-0.78-3.9-2.094-3.9
		c-1.437,0-2.873,1.437-4.31,4.433C40.31,266.408,36.821,277.081,34.317,288.985z"/>
	<path fill="#D23333" d="M104.88,300.971v9.523c-11.617,8.497-22.7,12.643-33.414,12.643c-3.9,0-6.773-1.683-8.743-5.213
		c-1.56-2.75-2.34-6.404-2.34-10.837c0-8.21,2.463-15.517,7.43-21.92s10.55-9.647,16.953-9.647c6.116,0,9.154,2.873,9.154,8.497
		c0,5.09-2.627,9.647-7.964,13.587c-2.997,2.217-7.553,4.556-13.71,7.06l-2.34,0.903c-0.246,6.773,1.683,10.18,5.87,10.18
		C83.986,315.708,93.674,310.741,104.88,300.971z M71.097,298.098c10.303-3.653,15.393-7.964,15.393-12.93
		c0-1.683-0.78-2.627-2.627-2.627c-2.627,0-5.213,1.56-7.717,4.556C73.683,290.258,72,293.788,71.097,298.098z"/>
	<path fill="#D23333" d="M206.436,300.971v9.647c-3.243,2.217-6.527,3.243-10.057,3.243c-4.556,0-8.867-2.34-12.807-6.896
		c-6.239,10.591-12.766,15.927-19.539,15.927c-2.75,0-5.213-1.19-7.184-3.53c-1.97-2.34-3.407-5.624-3.9-9.647
		c-6.404,8.867-12.52,13.3-18.39,13.3c-4.967,0-7.43-5.09-7.43-15.393c0-9.154,2.217-19.047,6.65-29.637l10.057-1.026
		c-4.967,12.807-7.43,23.111-7.43,30.91c0,4.064,0.78,6.116,2.627,6.116c1.437,0,3.407-1.026,5.747-3.243
		c2.997-2.75,5.87-6.404,8.333-11.206c1.026-5.624,3.12-12.807,6.116-21.92l10.303-0.78c-4.967,13.834-7.553,23.891-7.553,30.007
		c0,5.336,1.314,8.087,3.9,8.087c1.683,0,3.9-1.437,6.527-4.31c2.627-2.873,4.967-6.28,6.773-10.18
		c-0.534-2.34-0.78-4.187-0.78-5.624c0-3.243,0.41-6.404,1.314-9.77c0.78-3.243,1.847-5.501,2.873-6.527
		c1.314-1.19,3.653-1.683,7.06-1.683c1.026,0,1.683,1.026,1.683,2.997c0,4.68-1.437,11.494-4.433,20.483
		c3.243,4.31,6.527,6.527,9.523,6.527C199.252,306.718,202.659,304.748,206.436,300.971z"/>
	<path fill="#D23333" d="M261.195,300.971v9.647c-8.743,8.087-15.64,12.274-20.73,12.274c-4.064,0-6.116-3.653-5.87-10.96
		c-6.65,7.307-12.027,10.96-16.05,10.96c-3.407,0-6.404-1.683-8.867-4.844c-2.627-3.243-3.777-7.06-3.777-11.494
		c0-8.087,2.627-15.27,7.84-21.263c4.844-5.624,9.934-8.497,15.517-8.497c4.433,0,8.21,2.463,11.494,7.307l1.847-7.307h9.4
		l-5.87,24.014c-1.19,4.967-1.847,8.497-1.847,10.714c0,1.437,0.41,2.217,1.314,2.217
		C248.141,313.779,253.355,309.469,261.195,300.971z M236.401,302.531l2.627-11.494c-2.627-2.997-4.31-4.967-5.09-5.501
		c-1.19-1.026-2.463-1.437-3.9-1.437c-3.653,0-6.896,2.094-9.77,6.281c-2.997,4.187-4.433,8.867-4.433,14.08
		c0,3.12,0.534,5.624,1.683,7.717c1.149,2.094,2.463,3.12,4.064,3.12c3.653,0,8.497-3.9,14.203-11.863
		C236.032,302.942,236.278,302.655,236.401,302.531z"/>
	<path fill="#D23333" d="M287.384,323.015l2.217-10.96l-1.683,1.847c-5.624,5.993-10.55,8.99-14.737,8.99
		c-3.53,0-6.527-1.56-8.867-4.68c-2.34-3.12-3.653-7.06-3.653-11.74c0-7.717,2.34-14.49,7.184-20.36
		c4.844-5.87,10.303-8.99,16.296-8.99c1.97,0,3.653,0.534,5.213,1.437c1.437,1.026,3.407,2.873,5.87,5.747l1.56-7.184h9.277
		l-7.84,38.381c5.501-3.776,11.371-8.62,17.61-14.49v9.647c-4.844,4.556-11.206,9.647-19.704,15.147
		c-2.094,9.4-4.31,16.05-6.773,19.827c-2.463,3.777-5.87,5.624-10.057,5.624c-3.243,0-5.87-0.78-8.087-2.34
		c-2.217-1.437-3.407-3.407-3.407-5.501c0-4.31,5.501-10.303,16.461-18.144C285.044,324.862,286.071,324.082,287.384,323.015z
		 M291.941,300.971l1.97-9.277c-2.217-2.75-3.777-4.556-4.68-5.501c-1.437-1.314-2.997-1.847-4.556-1.847
		c-2.997,0-5.87,1.56-8.743,4.844c-3.53,3.9-5.336,9.277-5.336,15.64c0,2.997,0.534,5.624,1.56,7.43
		c1.026,1.97,2.463,2.997,4.064,2.997c2.997,0,7.184-3.243,12.397-9.77l1.847-2.34C291.571,301.875,291.941,301.218,291.941,300.971
		z M285.578,332.292c-6.65,4.967-10.057,8.333-10.057,10.303c0,1.683,1.19,2.627,3.653,2.627c1.56,0,2.75-0.78,3.653-2.463
		C283.485,341.159,284.511,337.628,285.578,332.292z"/>
	<path fill="#D23333" d="M370.755,300.971v9.647c-2.75,2.094-5.624,3.243-8.743,3.243c-4.064,0-7.717-1.847-11.083-5.501
		c-5.501,9.647-12.52,14.613-21.017,14.613c-4.556,0-8.087-1.437-10.714-4.31c-2.627-2.873-3.9-6.896-3.9-12.151
		c0-5.213,1.19-10.303,3.653-15.024c2.463-4.844,5.747-8.333,9.934-10.96c3.653-2.34,8.087-3.407,13.587-3.407l-0.534,6.527
		c-4.31,0.657-7.717,2.094-10.18,4.433c-4.187,3.776-6.281,9.4-6.281,17.076c0,6.896,2.217,10.303,6.773,10.303
		c2.873,0,5.624-1.437,8.087-4.556c2.627-2.997,4.31-6.527,4.967-10.714c-0.78-2.627-1.026-4.556-1.026-6.116
		c0-5.501,0.903-9.934,2.75-12.93h7.553c0.534,2.093,0.78,4.433,0.78,6.773c0,4.064-0.657,8.333-1.97,12.807
		c3.53,3.653,6.527,5.624,9.154,5.624C365.131,306.185,367.881,304.379,370.755,300.971z"/>
	<path fill="#D23333" d="M377.076,277.081h9.647c-1.97,5.501-3.653,10.303-4.844,14.737c5.87-5.624,10.55-9.4,13.71-11.617
		c3.243-2.094,6.116-3.12,8.62-3.12c1.97,0,3.653,1.026,4.967,2.997s1.97,4.433,1.97,7.43c0,2.75-1.026,7.184-3.12,13.3
		c-1.683,4.967-2.627,8.497-2.627,10.714s0.657,3.243,1.847,3.243c1.026,0,3.12-1.19,6.404-3.407
		c4.064-2.873,7.84-6.28,11.371-10.303v9.647l-2.34,2.094c-7.553,6.773-13.834,10.18-18.8,10.18c-2.34,0-4.31-1.026-5.747-2.873
		s-2.094-4.556-2.094-7.84c0-2.75,1.026-7.184,3.12-13.177c1.56-4.556,2.34-7.553,2.34-9.277c0-2.34-0.534-3.53-1.683-3.53
		c-2.34,0-8.743,5.09-18.8,15.27l-1.19,1.19c-0.246,2.217-0.41,4.967-0.41,8.21c0,2.34,0.123,5.501,0.246,8.99l0.123,2.627h-9.154
		c-0.123-1.437-0.246-3.53-0.41-6.527l-0.246-6.116v-3.859C370.139,299.289,372.52,289.601,377.076,277.081z"/>
</g>
<g>
	<path fill="#D23333" d="M463.854,308.278c-8.21,0-14.86,6.65-14.86,14.86c0,8.21,6.65,14.86,14.86,14.86s14.86-6.65,14.86-14.86
		C478.714,314.928,472.064,308.278,463.854,308.278z M463.854,331.102c-4.433,0-8.087-3.653-8.087-8.087
		c0-4.433,3.653-8.087,8.087-8.087s8.087,3.653,8.087,8.087C471.941,327.571,468.41,331.102,463.854,331.102z"/>
	<path fill="#D23333" d="M550.098,308.278c-8.21,0-14.86,6.65-14.86,14.86c0,8.21,6.65,14.86,14.86,14.86
		c8.21,0,14.86-6.65,14.86-14.86C564.958,314.928,558.308,308.278,550.098,308.278z M550.098,331.102
		c-4.433,0-8.087-3.653-8.087-8.087c0-4.433,3.653-8.087,8.087-8.087s8.087,3.653,8.087,8.087
		C558.185,327.571,554.531,331.102,550.098,331.102z"/>
	<path fill="#D23333" d="M445.957,323.138c0-9.934,7.964-17.897,17.897-17.897s17.897,7.964,17.897,17.897h50.49
		c0-9.934,7.964-17.897,17.897-17.897s17.897,7.964,17.897,17.897l18.513-0.41c0,0,2.75-0.903,2.75-6.281
		c0-5.336-3.653-5.87-3.653-5.87l-8.62-0.123c0,0-0.246-5.501-8.21-13.423c-7.84-8.087-17.241-6.773-17.241-6.773l-122.778,0.534
		v24.26h0.246c0,0-2.094-1.026-2.217,3.9c-0.123,4.844,2.094,4.064,2.094,4.064L445.957,323.138z"/>
	<rect x="482.49" y="313.902" fill="#D23333" width="49.998" height="1.026"/>
	<rect x="430.44" y="313.902" fill="#D23333" width="15.927" height="1.026"/>
	<path fill="#D23333" d="M586.632,285.701h-1.56l-0.657-8.497c0,0-5.213-16.584-16.707-28.447c-0.246-0.246,2.627,0,2.34-0.246
		c-11.986-11.986-46.837-9.77-61.984-10.303c-15.147-0.534-71.507,3.407-77.131,8.497c-2.463,2.217-2.094,5.501-2.094,5.501v34.071
		h125.528c0,0,7.06-1.026,16.953,6.896c7.43,5.993,9.277,15.147,9.277,15.147h4.433l-0.123-13.423l1.97,0.123
		C588.848,291.982,588.068,286.727,586.632,285.701z M469.97,277.615c0,0.657-0.534,1.19-1.19,1.19h-24.917
		c-0.657,0-1.19-0.534-1.19-1.19v-24.67c0-0.657,0.534-1.19,1.19-1.19h24.917c0.657,0,1.19,0.534,1.19,1.19V277.615z
		 M503.918,277.615c0,0.657-0.534,1.19-1.19,1.19h-24.917c-0.657,0-1.19-0.534-1.19-1.19v-24.67c0-0.657,0.534-1.19,1.19-1.19
		h24.917c0.657,0,1.19,0.534,1.19,1.19V277.615z M537.824,277.615c0,0.657-0.534,1.19-1.19,1.19h-24.917
		c-0.657,0-1.19-0.534-1.19-1.19v-24.67c0-0.657,0.534-1.19,1.19-1.19h24.917c0.657,0,1.19,0.534,1.19,1.19V277.615z
		 M574.892,278.928h-30.664c-1.314,0-2.34-1.026-2.34-2.34v-22.577c0-1.314,1.026-2.34,2.34-2.34h14.367
		c8.743,0,18.513,17.241,18.513,21.674C577.108,277.615,576.082,278.928,574.892,278.928z"/>
</g>
</svg>
